<?xml version="1.0" standalone="no"?>
<!DOCTYPE svg PUBLIC "-//W3C//DTD SVG 20010904//EN"
 "http://www.w3.org/TR/2001/REC-SVG-20010904/DTD/svg10.dtd">
<svg version="1.0" xmlns="http://www.w3.org/2000/svg"
 width="1024.000000pt" height="1024.000000pt" viewBox="0 0 1024.000000 1024.000000"
 preserveAspectRatio="xMidYMid meet">

<g transform="translate(0.000000,1024.000000) scale(0.100000,-0.100000)"
fill="#000000" stroke="none">
<path d="M0 5120 l0 -5120 5120 0 5120 0 0 4095 c0 4056 0 4095 -20 4115 -12
12 -22 15 -26 9 -4 -6 0 -16 7 -21 11 -7 9 -8 -5 -4 -10 4 -25 1 -32 -5 -8 -6
-14 -7 -14 -2 0 5 9 15 20 23 11 8 20 21 20 28 0 12 3 12 15 2 12 -10 15 -10
15 2 0 7 -10 22 -22 33 -15 12 -18 20 -10 23 7 2 10 8 6 13 -6 10 -34 -14 -34
-29 0 -6 6 -12 12 -15 7 -2 10 -8 6 -12 -8 -8 -38 18 -38 33 0 6 6 13 13 16 9
3 7 8 -5 16 -9 6 -15 17 -12 25 4 8 1 15 -5 15 -6 0 -11 -5 -11 -11 0 -5 -5
-7 -10 -4 -6 4 -8 11 -5 16 4 5 -1 12 -10 15 -29 12 -27 -4 4 -35 35 -34 38
-41 17 -41 -8 0 -16 -6 -19 -12 -3 -9 -10 -5 -22 10 -9 12 -21 20 -26 16 -6
-3 -5 -12 3 -22 12 -14 10 -14 -11 -2 -22 11 -23 13 -7 22 16 9 13 15 -30 54
-26 24 -44 47 -40 51 4 5 13 0 20 -10 7 -9 18 -17 25 -17 6 0 10 -4 9 -8 -2
-4 9 -20 24 -35 25 -25 28 -26 28 -8 0 11 -9 22 -20 26 -11 3 -20 13 -20 21 0
8 -4 14 -10 14 -5 0 -10 5 -10 10 0 6 6 10 14 10 8 0 17 6 19 13 4 9 8 8 16
-3 6 -8 11 -19 11 -25 0 -5 -4 -3 -10 5 -13 21 -25 4 -14 -21 9 -20 11 -19 48
21 20 23 40 39 43 36 4 -3 -4 -14 -15 -25 -27 -23 -28 -31 -1 -31 11 0 18 4
15 8 -2 4 -1 14 4 22 8 13 12 12 27 -4 17 -17 17 -18 -2 -12 -18 5 -21 2 -19
-21 1 -16 3 -29 4 -30 1 -2 3 -7 4 -13 0 -5 4 -10 9 -10 8 0 9 4 1 25 -4 8 -1
22 6 30 11 14 15 14 31 -1 10 -9 24 -14 31 -11 9 4 8 6 -3 6 -19 1 -52 35 -42
44 3 4 1 7 -6 7 -15 0 -41 25 -41 39 0 6 4 11 10 11 5 0 15 10 21 23 11 20 11
21 -5 7 -16 -12 -19 -12 -27 3 -6 9 -15 17 -20 17 -6 0 -3 -7 5 -16 21 -20 20
-24 -8 -57 -21 -24 -28 -27 -45 -17 -12 6 -21 15 -21 20 0 6 -9 10 -21 10 -17
0 -19 4 -13 22 6 20 5 21 -9 9 -9 -7 -14 -17 -11 -22 3 -5 0 -9 -5 -9 -6 0
-11 5 -11 10 0 6 -7 10 -15 10 -8 0 -12 6 -9 14 3 7 -3 16 -12 20 -22 8 -33
-2 -14 -14 12 -7 12 -12 2 -22 -9 -9 -12 -9 -12 5 0 9 -5 17 -11 17 -8 0 -8 4
-1 13 9 10 6 17 -8 30 -21 17 -28 9 -9 -10 8 -8 7 -13 -2 -19 -7 -4 -15 -2
-17 5 -3 8 -8 9 -17 1 -9 -8 -17 -6 -29 6 -10 9 -20 13 -24 9 -4 -4 -1 -10 5
-12 25 -9 12 -21 -22 -21 -35 0 -64 22 -112 82 -12 16 -26 27 -33 24 -6 -2 9
-25 34 -51 25 -26 41 -47 36 -47 -12 0 -70 59 -70 71 0 5 -7 9 -15 9 -8 0 -15
-4 -15 -10 0 -5 -8 -6 -17 -3 -14 5 -14 8 -2 11 7 3 24 14 36 25 l23 20 19
-21 c22 -26 31 -28 31 -7 0 18 17 20 23 3 2 -7 8 -9 13 -5 5 5 -1 17 -13 27
-13 10 -23 23 -23 29 0 6 -11 13 -25 17 -14 3 -25 12 -25 19 0 8 -7 21 -16 30
-9 9 -14 19 -11 22 6 5 37 -20 37 -30 0 -14 71 -74 76 -65 4 6 1 14 -7 18 -10
7 -10 11 0 24 8 9 9 16 3 16 -6 0 -12 -5 -14 -12 -3 -8 -15 -2 -34 15 -23 22
-26 29 -15 36 12 8 12 12 -3 26 -9 10 -20 14 -24 11 -3 -4 0 -11 8 -16 8 -5
11 -12 7 -16 -3 -4 -13 -2 -20 4 -10 9 -17 8 -26 -1 -9 -9 -14 -9 -21 3 -5 8
-13 11 -17 6 -4 -5 -2 -11 5 -13 6 -3 12 -11 12 -18 0 -7 -6 -15 -12 -18 -10
-3 -9 -8 2 -22 14 -17 14 -17 -7 -5 -16 11 -19 18 -11 27 7 9 6 17 -5 27 -17
18 -28 11 -19 -12 5 -15 4 -15 -11 -3 -15 12 -16 16 -3 30 16 18 16 18 -47 65
-49 38 -47 25 3 -20 22 -20 38 -39 36 -42 -3 -2 -29 16 -58 42 -49 43 -77 59
-63 36 3 -5 0 -10 -9 -10 -8 0 -16 6 -19 13 -2 6 -8 9 -12 4 -5 -4 0 -13 10
-21 16 -12 17 -16 6 -30 -7 -9 -17 -16 -21 -16 -13 0 -53 40 -47 46 3 4 13 -1
22 -10 17 -17 35 -21 35 -8 0 4 -15 15 -33 26 -21 12 -27 20 -18 24 7 2 16 0
20 -6 4 -7 12 -3 20 11 8 13 8 17 2 11 -13 -12 -61 -7 -61 7 0 5 -7 9 -15 9
-18 0 -19 12 -3 28 9 9 9 12 0 12 -7 0 -12 -5 -12 -11 0 -5 -4 -7 -10 -4 -5 3
-10 0 -10 -8 0 -7 11 -20 24 -27 27 -14 40 -36 26 -45 -5 -3 -11 3 -14 13 -4
10 -18 25 -31 32 -14 7 -25 17 -25 22 0 4 -7 8 -15 8 -14 0 -13 -3 2 -24 10
-13 21 -22 26 -19 4 2 7 -2 7 -11 0 -8 6 -16 13 -19 7 -2 8 -8 3 -13 -5 -5
-11 -4 -13 4 -3 6 -9 12 -15 12 -6 0 -7 -8 -4 -17 6 -14 3 -14 -16 3 -12 10
-36 34 -54 52 -32 33 -59 41 -66 21 -2 -7 -32 16 -67 50 -34 33 -65 61 -68 61
-6 0 66 -91 82 -102 6 -5 5 -11 -4 -17 -8 -5 -10 -14 -5 -22 6 -11 4 -11 -10
0 -13 11 -14 16 -4 23 10 8 10 11 1 15 -7 2 -13 11 -13 18 0 15 -28 29 -50 26
-12 -1 -13 0 -1 7 11 8 9 13 -11 26 -14 9 -32 14 -40 11 -23 -9 -44 21 -28 40
7 9 8 15 2 15 -8 0 -22 -22 -22 -35 0 -2 12 -16 26 -30 14 -14 24 -29 20 -32
-8 -8 -45 18 -98 72 -27 26 -48 43 -48 38 0 -6 11 -19 25 -29 25 -19 34 -44
16 -44 -6 0 -16 9 -24 21 -8 11 -18 16 -21 11 -3 -6 0 -12 6 -15 7 -2 10 -7 7
-11 -6 -7 -59 16 -59 25 0 4 8 13 17 20 15 12 16 12 9 -6 -4 -11 -3 -16 1 -11
13 12 10 60 -4 74 -7 7 -13 10 -13 5 0 -5 5 -14 12 -21 9 -9 9 -12 1 -12 -7 0
-15 4 -18 10 -4 6 -15 2 -27 -10 -12 -11 -26 -17 -31 -13 -6 4 -3 11 6 18 19
13 23 35 7 35 -5 0 -10 -7 -10 -16 0 -12 -6 -11 -28 8 -16 13 -25 25 -20 26 5
2 16 -2 24 -9 13 -10 17 -10 24 1 7 11 11 11 24 0 9 -7 20 -10 23 -6 4 4 1 11
-7 16 -8 5 -11 12 -8 16 4 3 15 -1 24 -10 15 -16 18 -16 34 -1 14 13 19 13 23
3 4 -11 7 -10 15 1 11 15 14 13 68 -38 18 -17 28 -20 33 -12 4 6 15 9 24 5 22
-8 22 12 0 25 -10 6 -13 11 -6 11 6 0 15 -4 18 -10 3 -5 15 -10 26 -10 11 0
17 5 14 10 -3 6 -2 10 4 10 5 0 13 -5 17 -12 5 -7 11 -5 21 7 7 11 13 13 13 7
0 -7 5 -12 10 -12 6 0 10 7 10 15 0 16 20 16 33 0 4 -6 11 -4 17 5 5 8 10 10
10 5 0 -6 9 -16 21 -23 19 -12 20 -11 14 10 -3 13 -3 18 2 12 11 -15 52 -24
59 -13 3 5 12 2 20 -6 18 -17 34 -20 34 -4 0 5 -4 8 -9 4 -5 -3 -13 0 -17 6
-7 12 7 10 51 -6 18 -7 18 -6 -2 12 -33 30 -28 35 12 13 19 -11 35 -15 35 -10
0 5 20 8 45 7 34 -2 44 1 40 10 -3 10 0 11 15 3 10 -5 22 -15 25 -20 3 -6 12
-10 18 -10 8 0 7 3 -2 9 -7 5 -10 14 -6 21 4 7 10 8 14 4 3 -5 15 -16 25 -24
18 -14 18 -13 11 8 -6 21 -5 23 12 13 11 -5 26 -17 33 -26 11 -14 14 -13 27 5
8 12 21 19 28 16 7 -2 17 0 23 6 8 8 16 7 27 -2 11 -9 19 -10 23 -3 4 6 18 14
31 18 18 5 22 4 16 -5 -6 -9 -4 -11 4 -6 7 5 10 15 6 23 -4 13 -3 14 10 3 8
-7 13 -16 10 -20 -3 -5 0 -12 6 -16 7 -4 9 -3 6 3 -4 6 3 21 15 34 16 19 20
20 14 5 -4 -13 -2 -17 8 -13 7 3 19 0 25 -6 8 -8 11 -6 11 8 1 18 2 18 13 4 9
-12 16 -14 30 -5 12 8 22 8 36 -1 14 -9 21 -9 30 0 9 9 14 8 21 -3 5 -8 13
-11 17 -6 4 4 0 13 -9 20 -10 7 -15 16 -11 20 3 3 15 -1 25 -11 17 -15 18 -15
18 0 0 19 15 23 26 6 4 -8 9 -7 14 2 7 10 12 10 26 -2 14 -11 18 -11 22 -1 2
9 14 11 37 6 27 -5 36 -2 46 14 12 19 14 19 25 4 10 -14 14 -14 28 -3 14 12
16 66 16 507 l0 494 -5120 0 -5120 0 0 -5120z m10144 4118 c-3 -4 -9 -8 -15
-8 -5 0 -9 4 -9 8 0 5 7 9 15 9 8 0 12 -4 9 -9z m-219 -18 c3 -5 1 -10 -4 -10
-6 0 -11 5 -11 10 0 6 2 10 4 10 3 0 8 -4 11 -10z m-365 -54 c0 -3 -4 -8 -10
-11 -5 -3 -10 -1 -10 4 0 6 5 11 10 11 6 0 10 -2 10 -4z m-380 -16 c0 -5 -2
-10 -4 -10 -3 0 -8 5 -11 10 -3 6 -1 10 4 10 6 0 11 -4 11 -10z m-6605 -30
c-3 -5 -1 -10 4 -10 6 0 11 5 11 10 0 14 22 8 38 -10 8 -8 11 -9 7 -2 -4 7 0
12 9 12 9 0 16 -5 16 -11 0 -8 6 -7 18 2 9 7 14 9 10 5 -5 -5 6 -18 23 -28 23
-14 29 -23 24 -39 -6 -18 -5 -19 14 -10 12 7 21 10 21 7 0 -15 -25 -56 -37
-60 -8 -3 -11 -1 -8 4 9 15 -27 12 -47 -4 -10 -7 -14 -17 -10 -21 4 -5 1 -5
-6 0 -10 5 -11 10 -3 18 6 6 11 15 11 20 0 5 -7 1 -16 -7 -11 -12 -20 -13 -34
-6 -24 13 -30 13 -30 -1 0 -5 5 -7 10 -4 6 3 10 1 10 -5 0 -7 -8 -9 -20 -5
-11 4 -20 2 -20 -4 0 -6 -8 -7 -17 -4 -16 6 -17 5 -3 -12 15 -18 14 -19 -10
-2 -33 23 -42 21 -36 -5 5 -18 3 -18 -7 3 -9 20 -15 24 -24 15 -34 -32 -41
-36 -47 -23 -3 9 -7 8 -15 -3 -14 -20 -14 -7 1 25 9 19 9 28 1 33 -8 5 -7 13
3 27 13 17 16 18 25 5 9 -12 10 -12 5 3 -6 19 14 47 33 47 5 0 17 10 25 22 9
12 16 20 16 16 0 -3 12 -3 28 2 15 5 28 9 30 9 2 1 0 -3 -3 -9z m6021 -7 c11
-10 28 -31 38 -46 l18 -29 19 21 c20 22 31 25 42 15 9 -9 -21 -36 -33 -29 -5
3 -10 2 -10 -2 0 -13 40 -44 49 -39 4 3 13 -6 20 -20 14 -33 14 -42 -1 -23
-22 26 -120 91 -126 83 -4 -4 -1 -9 6 -11 6 -3 12 -9 12 -14 0 -16 -15 -9 -33
17 -15 20 -16 28 -7 39 9 11 9 18 -4 30 -28 29 -20 35 10 8z m284 7 c0 -5 -4
-10 -10 -10 -5 0 -10 5 -10 10 0 6 5 10 10 10 6 0 10 -4 10 -10z m-385 -40
c-4 -6 19 -36 50 -66 31 -31 54 -58 51 -62 -3 -3 -15 5 -26 18 -15 18 -23 21
-32 12 -17 -17 -43 6 -27 25 7 7 8 17 4 21 -4 4 -10 1 -12 -5 -3 -7 -9 -13
-15 -13 -6 0 -5 7 3 16 10 13 10 17 -1 24 -12 7 -8 40 5 40 4 0 3 -5 0 -10z
m85 0 c0 -5 -4 -10 -10 -10 -5 0 -10 5 -10 10 0 6 5 10 10 10 6 0 10 -4 10
-10z m-25 -26 c14 -14 24 -28 22 -31 -5 -4 -57 44 -57 52 0 10 10 4 35 -21z
m-5781 -71 c-17 -17 -18 -17 -11 0 4 10 7 24 7 30 0 8 3 8 11 0 9 -9 7 -16 -7
-30z m5850 -2 c-2 -3 -12 3 -22 13 -16 17 -16 18 5 5 12 -7 20 -15 17 -18z
m50 4 c14 -14 21 -25 17 -25 -10 0 -51 35 -51 44 0 11 9 6 34 -19z m106 5 c0
-5 -4 -10 -10 -10 -5 0 -10 5 -10 10 0 6 5 10 10 10 6 0 10 -4 10 -10z m53
-15 c10 -14 15 -25 12 -25 -6 0 -45 38 -45 45 0 12 17 2 33 -20z m93 14 c3 -6
1 -16 -6 -22 -10 -9 -11 -9 -6 1 4 6 2 12 -3 12 -6 0 -11 5 -11 10 0 13 17 13
26 -1z m-6516 -9 c0 -5 -4 -10 -10 -10 -5 0 -10 5 -10 10 0 6 5 10 10 10 6 0
10 -4 10 -10z m300 0 c0 -5 -5 -10 -11 -10 -5 0 -7 5 -4 10 3 6 8 10 11 10 2
0 4 -4 4 -10z m5801 -27 c13 -16 12 -17 -3 -4 -10 7 -18 15 -18 17 0 8 8 3 21
-13z m292 3 c4 -10 1 -13 -9 -9 -7 3 -14 0 -14 -6 0 -6 4 -11 9 -11 5 0 11 -7
15 -15 7 -20 4 -19 -23 4 -19 17 -21 22 -9 35 17 19 24 20 31 2z m167 -21 c7
-9 8 -15 2 -15 -5 0 -12 7 -16 15 -3 8 -4 15 -2 15 2 0 9 -7 16 -15z m100 -45
c0 -5 -2 -10 -4 -10 -3 0 -8 5 -11 10 -3 6 -1 10 4 10 6 0 11 -4 11 -10z m50
0 c0 -5 -4 -10 -10 -10 -5 0 -10 5 -10 10 0 6 5 10 10 10 6 0 10 -4 10 -10z
m300 -60 c0 -5 -4 -10 -10 -10 -5 0 -10 -7 -10 -15 0 -8 -4 -15 -10 -15 -13 0
-13 6 2 30 14 21 28 26 28 10z m-86 -53 c3 4 6 1 6 -5 0 -7 -3 -12 -6 -12 -9
0 -64 58 -64 67 0 4 14 -6 29 -24 16 -17 32 -29 35 -26z m-79 23 c-3 -5 -1
-10 6 -10 7 0 10 -3 6 -6 -9 -9 -28 6 -22 17 4 5 8 9 11 9 3 0 2 -4 -1 -10z
m190 0 c3 -6 -1 -7 -9 -4 -18 7 -21 14 -7 14 6 0 13 -4 16 -10z m14 -36 c-11
-14 -10 -18 6 -31 18 -14 18 -15 2 -9 -10 3 -23 6 -28 6 -6 0 -2 13 7 30 10
16 20 27 22 25 3 -3 -1 -12 -9 -21z m41 -14 c0 -5 -4 -10 -10 -10 -5 0 -10 5
-10 10 0 6 5 10 10 10 6 0 10 -4 10 -10z m-180 -10 c0 -5 -4 -10 -10 -10 -5 0
-10 5 -10 10 0 6 5 10 10 10 6 0 10 -4 10 -10z m45 0 c3 -5 -1 -10 -9 -10 -9
0 -16 5 -16 10 0 6 4 10 9 10 6 0 13 -4 16 -10z m325 -103 c0 -5 -7 -2 -15 7
-8 8 -26 23 -39 33 -13 10 -27 30 -31 43 -5 19 3 14 39 -25 25 -27 45 -54 46
-58z m-2111 67 c105 -24 196 -78 286 -169 127 -128 179 -247 179 -410 0 -188
-89 -362 -250 -486 l-56 -43 6 -111 c11 -173 8 -307 -8 -383 -16 -77 -72 -207
-112 -259 -14 -19 -24 -37 -21 -39 11 -11 195 156 281 254 50 58 134 152 186
209 52 58 106 122 119 144 48 81 57 55 65 -201 3 -85 10 -222 17 -305 14 -184
5 -413 -22 -593 -35 -231 -153 -537 -277 -714 -136 -196 -311 -388 -432 -475
-41 -30 -102 -74 -135 -98 -33 -24 -84 -59 -112 -77 -29 -18 -53 -35 -53 -38
0 -3 204 -4 453 -2 l454 3 11 -98 c53 -458 110 -837 137 -913 8 -23 15 -46 15
-50 0 -4 -21 -13 -47 -19 -26 -7 -74 -28 -108 -47 -110 -63 -115 -71 -60 -121
39 -36 76 -57 116 -66 32 -8 39 -35 39 -151 0 -44 7 -151 15 -236 29 -315 34
-379 45 -580 9 -179 19 -301 36 -455 2 -22 7 -49 11 -60 4 -15 -3 -12 -32 14
-44 38 -193 113 -320 160 -122 45 -243 95 -329 135 -39 19 -98 41 -131 51 -33
9 -75 25 -93 36 -18 10 -70 31 -115 45 -45 15 -93 32 -107 39 -14 7 -39 15
-55 18 -50 9 -68 14 -130 35 -33 12 -63 18 -67 14 -4 -4 0 -173 8 -377 8 -203
17 -495 21 -647 l6 -277 -34 9 c-19 6 -113 11 -209 12 -126 2 -145 3 -67 5 59
2 107 8 107 12 0 5 -8 7 -19 4 -10 -3 -22 0 -25 6 -5 7 -1 8 9 4 10 -3 21 0
26 8 6 10 9 10 9 2 0 -7 7 -13 15 -13 8 0 15 -4 15 -10 0 -13 37 -13 45 0 3 6
14 10 23 9 14 0 13 -2 -3 -9 -18 -8 -17 -9 7 -9 20 -1 26 3 22 14 -4 8 1 26
10 40 20 30 20 35 1 35 -8 0 -15 -8 -16 -17 -1 -10 -6 -1 -11 19 -10 38 -28
52 -28 23 0 -13 -7 -15 -37 -9 -32 6 -344 9 -552 5 l-54 -1 22 -24 c13 -14 20
-29 16 -35 -3 -6 -1 -11 5 -11 6 0 8 -5 4 -11 -4 -7 -9 -8 -13 -1 -3 5 -15 12
-26 15 -18 4 -18 5 3 6 l23 1 -27 33 -26 33 -331 3 c-182 1 -333 4 -336 7 -3
3 293 3 657 2 l662 -3 0 35 c0 19 -5 168 -11 330 -27 732 -34 980 -27 980 3 0
46 -14 95 -31 48 -17 117 -39 153 -50 108 -31 173 -61 158 -70 -8 -5 1 -6 21
-2 20 3 32 2 29 -3 -4 -5 6 -9 21 -10 15 -1 52 -12 82 -26 30 -14 93 -40 140
-57 47 -17 128 -49 180 -70 232 -96 386 -162 412 -176 57 -30 60 -25 54 77 -4
51 -11 127 -16 168 -13 93 -61 725 -61 800 l0 55 -87 54 c-112 71 -203 147
-203 170 0 12 34 45 93 90 50 39 120 96 155 128 62 57 63 58 52 93 -9 31 -27
141 -76 465 -8 55 -18 143 -22 195 l-7 95 -524 7 c-288 4 -525 9 -526 10 -2 2
-5 36 -6 76 l-4 73 113 59 c366 193 662 471 839 790 53 95 121 279 158 430 33
135 36 161 46 389 11 262 9 504 -4 518 -10 9 -41 -26 -77 -88 -39 -67 -242
-266 -390 -384 -222 -176 -414 -296 -638 -400 -79 -37 -146 -65 -148 -62 -3 2
20 47 51 100 30 53 55 100 55 105 0 5 17 12 38 16 58 9 245 146 334 244 114
126 210 318 249 496 17 76 20 125 18 320 -1 227 -1 230 20 238 26 9 106 63
144 97 43 38 83 109 112 196 22 66 26 93 23 161 -3 71 -8 91 -42 158 -70 137
-149 206 -284 246 -62 19 -90 22 -175 18 -117 -6 -164 -22 -252 -83 -74 -53
-94 -74 -140 -150 -44 -75 -56 -116 -56 -208 -1 -88 14 -149 58 -246 33 -73
41 -111 24 -111 -4 0 -46 19 -92 43 -127 64 -348 127 -729 207 -237 49 -567
90 -727 90 l-61 0 -7 78 c-12 153 -33 212 -81 236 -73 34 -283 46 -486 26
-132 -13 -146 -17 -165 -54 -13 -25 -28 -149 -32 -267 -1 -14 -25 -17 -168
-22 -93 -4 -226 -16 -298 -26 -195 -30 -546 -104 -760 -160 -282 -73 -332 -93
-385 -153 -14 -15 -54 -39 -90 -54 -107 -43 -219 -105 -225 -124 -8 -24 19
-220 45 -325 24 -102 104 -359 131 -422 25 -59 58 -95 128 -140 l54 -35 -6
-50 c-4 -28 -8 -52 -10 -54 -6 -6 -126 45 -167 71 -20 13 -52 41 -69 62 -99
119 -193 419 -217 688 -3 39 -14 123 -25 188 -11 65 -17 123 -13 129 4 5 31
21 61 34 31 14 121 64 200 111 164 97 311 161 458 198 355 89 464 112 795 171
41 8 153 17 247 20 l173 7 6 36 c3 20 17 86 32 146 l27 110 47 22 c103 50 410
77 580 53 85 -12 259 -71 269 -90 35 -71 89 -224 89 -255 0 -20 5 -21 88 -23
154 -4 268 -19 592 -77 157 -28 478 -109 522 -131 15 -8 29 -14 31 -14 3 0 7
51 9 113 13 280 161 489 403 567 97 32 248 33 374 4z m1957 1 c15 -14 23 -25
19 -25 -5 0 -17 8 -27 17 -17 15 -20 15 -28 3 -7 -12 -12 -12 -22 -2 -9 9 -9
12 5 12 9 0 17 5 17 10 0 15 6 12 36 -15z m-88 -1 c15 -15 14 -16 -6 -10 -14
5 -22 3 -22 -4 0 -6 -4 -8 -10 -5 -6 4 -5 11 3 20 15 18 15 18 35 -1z m-83 -4
c3 -5 1 -10 -4 -10 -6 0 -11 5 -11 10 0 6 2 10 4 10 3 0 8 -4 11 -10z m165
-29 c0 -5 -6 -11 -12 -14 -10 -4 -10 -7 0 -18 21 -22 13 -30 -8 -9 -17 17 -18
23 -8 35 15 16 28 19 28 6z m35 -17 c-13 -13 -13 -19 -3 -33 12 -14 11 -15 -4
-2 -21 16 -23 37 -5 44 24 10 28 7 12 -9z m40 -24 c3 -6 -1 -7 -9 -4 -18 7
-21 14 -7 14 6 0 13 -4 16 -10z m-80 -51 c11 -16 1 -19 -13 -3 -7 8 -8 14 -3
14 5 0 13 -5 16 -11z m67 -16 c10 -9 18 -21 18 -27 -1 -6 -9 -1 -20 12 -13 16
-21 19 -26 10 -4 -6 -2 -14 4 -16 7 -2 12 -8 12 -14 0 -12 39 -48 52 -48 13 0
10 18 -4 23 -8 2 -9 8 -4 13 5 5 11 4 13 -3 5 -14 23 -18 23 -5 0 5 -9 18 -21
31 -12 12 -18 25 -14 29 3 4 11 -1 17 -11 5 -10 23 -30 39 -44 29 -26 33 -47
5 -23 -13 10 -19 9 -32 -4 -9 -10 -13 -20 -10 -24 4 -3 10 -2 14 3 4 6 24 11
45 12 32 1 38 -1 32 -15 -5 -15 -4 -15 12 0 17 16 20 15 42 -1 l24 -19 -21 -6
c-28 -9 -28 -23 1 -32 12 -4 25 -12 29 -18 5 -7 8 -7 8 2 0 8 -9 16 -20 19
-11 3 -20 10 -20 15 0 5 5 6 10 3 6 -3 10 -2 10 4 0 5 7 11 16 13 12 2 6 11
-22 31 -21 15 -32 27 -24 27 9 0 26 -8 40 -17 16 -11 25 -13 28 -5 2 6 10 8
18 5 8 -3 14 0 14 7 0 8 -10 9 -30 5 -20 -4 -30 -3 -30 5 0 7 6 10 14 7 8 -3
16 -1 18 5 3 8 10 7 26 -1 27 -15 28 -28 2 -36 -11 -3 -20 -11 -20 -16 0 -5 9
-9 20 -9 11 0 20 3 20 8 0 4 11 12 25 19 22 10 27 8 44 -13 21 -27 31 -30 31
-10 0 9 7 12 20 9 11 -3 20 -10 20 -15 0 -6 -7 -8 -15 -4 -9 3 -15 0 -15 -9 0
-18 -26 -20 -33 -2 -4 9 -8 9 -15 -2 -9 -12 -13 -12 -27 2 -21 21 -25 21 -41
0 -8 -11 -13 -13 -14 -5 0 16 -25 16 -38 -1 -16 -18 24 -43 43 -27 11 9 16 6
26 -12 11 -20 10 -21 -3 -11 -12 11 -18 9 -33 -7 -10 -11 -13 -20 -7 -20 19 0
14 -14 -10 -29 -18 -10 -20 -11 -10 0 17 18 15 24 -12 37 -15 7 -27 7 -33 1
-11 -11 -43 -2 -43 12 0 14 18 11 23 -3 2 -7 8 -10 12 -6 4 4 0 14 -8 23 -15
14 -18 14 -36 -4 -11 -11 -16 -22 -13 -26 4 -3 -1 -3 -11 1 -9 3 -15 10 -12
14 7 11 -22 21 -40 14 -8 -4 -15 -1 -15 6 0 6 -4 9 -9 5 -5 -3 -12 -1 -16 5
-3 5 1 10 9 10 9 0 16 4 16 9 0 9 -47 61 -76 82 -30 22 -43 52 -30 66 15 16
16 16 38 -4z m-82 -19 c0 -2 -9 0 -20 6 -11 6 -20 13 -20 16 0 2 9 0 20 -6 11
-6 20 -13 20 -16z m239 -37 c6 -8 8 -17 4 -20 -7 -8 -33 11 -33 24 0 13 16 11
29 -4z m-119 -78 c0 -6 -4 -7 -10 -4 -5 3 -10 11 -10 16 0 6 5 7 10 4 6 -3 10
-11 10 -16z m-50 1 c0 -5 -4 -10 -10 -10 -5 0 -10 5 -10 10 0 6 5 10 10 10 6
0 10 -4 10 -10z m291 -13 c-1 -12 -15 -9 -19 4 -3 6 1 10 8 8 6 -3 11 -8 11
-12z m49 4 c0 -5 9 -13 20 -16 11 -3 20 -13 20 -22 0 -9 7 -21 15 -27 13 -10
13 -12 -4 -23 -16 -10 -18 -9 -14 8 3 10 0 19 -6 19 -6 0 -11 -4 -11 -9 0 -14
-53 -6 -58 9 -3 9 1 11 12 7 22 -9 46 2 46 21 0 8 -3 13 -6 9 -4 -3 -13 0 -20
8 -16 16 -18 25 -4 25 6 0 10 -4 10 -9z m-315 -11 c3 -5 1 -10 -4 -10 -6 0
-11 5 -11 10 0 6 2 10 4 10 3 0 8 -4 11 -10z m-2063 -38 c95 -42 167 -133 168
-213 0 -32 -2 -36 -23 -32 -19 4 -23 0 -25 -23 -5 -68 -89 -163 -165 -188
-113 -38 -208 -3 -294 108 l-23 29 0 -39 -1 -39 -21 40 c-28 53 -28 155 0 216
36 78 108 139 187 160 48 13 147 3 197 -19z m2153 -12 c3 -5 1 -10 -4 -10 -6
0 -11 5 -11 10 0 6 2 10 4 10 3 0 8 -4 11 -10z m138 -27 c-7 -2 -19 -2 -25 0
-7 3 -2 5 12 5 14 0 19 -2 13 -5z m182 -2 c3 -5 1 -12 -5 -16 -5 -3 -10 1 -10
9 0 18 6 21 15 7z m-95 -11 c0 -5 -4 -10 -9 -10 -6 0 -13 5 -16 10 -3 6 1 10
9 10 9 0 16 -4 16 -10z m10 -44 c0 -3 -4 -8 -10 -11 -5 -3 -10 -1 -10 4 0 6 5
11 10 11 6 0 10 -2 10 -4z m-4712 -115 c3 -123 -5 -155 -24 -96 l-12 40 -1
-33 c-1 -47 -29 -54 -191 -50 l-135 5 -3 113 c-2 84 1 116 10 122 7 4 90 7
183 5 l170 -2 3 -104z m4862 106 c0 -2 -10 -12 -21 -23 -22 -19 -22 -19 -8 4
12 19 29 30 29 19z m50 -7 c0 -5 -2 -10 -4 -10 -3 0 -8 5 -11 10 -3 6 -1 10 4
10 6 0 11 -4 11 -10z m-180 -10 c0 -5 -2 -10 -4 -10 -3 0 -8 5 -11 10 -3 6 -1
10 4 10 6 0 11 -4 11 -10z m170 -14 c0 -3 -4 -8 -10 -11 -5 -3 -10 -1 -10 4 0
6 5 11 10 11 6 0 10 -2 10 -4z m40 -6 c0 -5 -2 -10 -4 -10 -3 0 -8 5 -11 10
-3 6 -1 10 4 10 6 0 11 -4 11 -10z m-20 -24 c0 -3 -4 -8 -10 -11 -5 -3 -10 -1
-10 4 0 6 5 11 10 11 6 0 10 -2 10 -4z m-5241 -279 c8 -7 27 -30 43 -51 l28
-39 0 -292 c0 -265 -2 -305 -25 -435 -23 -136 -50 -240 -62 -240 -3 0 -3 23 0
50 7 57 -7 60 -18 3 -21 -115 -137 -406 -247 -623 -129 -252 -352 -594 -511
-780 -130 -152 -418 -449 -571 -588 -65 -59 -129 -117 -142 -129 -17 -16 -26
-18 -31 -10 -21 32 0 368 38 619 10 70 19 147 19 171 0 44 1 46 58 77 83 47
229 150 291 206 107 96 284 301 366 424 121 180 242 431 308 636 42 129 120
445 121 489 1 28 -2 30 -36 33 -50 4 -378 -42 -558 -79 -150 -30 -333 -86
-480 -146 -46 -19 -105 -42 -130 -50 -25 -8 -86 -37 -136 -64 -91 -49 -127
-59 -139 -38 -5 6 -12 4 -20 -8 -11 -15 -16 -7 -39 72 -15 50 -45 146 -66 214
-29 89 -37 127 -30 136 6 7 63 39 128 71 64 31 131 68 148 80 52 40 142 74
324 124 334 91 590 135 935 160 83 6 200 15 260 19 117 9 151 7 174 -12z m786
-12 c255 -23 493 -66 760 -137 240 -63 329 -96 399 -143 35 -24 100 -58 145
-75 45 -18 94 -42 108 -54 l26 -23 -52 -184 c-73 -258 -83 -289 -92 -295 -5
-3 -9 1 -9 9 0 48 -245 165 -580 275 -188 62 -324 95 -501 122 -157 24 -399
38 -399 23 0 -60 103 -436 167 -612 56 -153 178 -395 260 -516 167 -249 438
-520 608 -611 91 -49 115 -71 115 -109 0 -19 14 -129 30 -246 33 -230 46 -507
24 -529 -18 -18 -145 81 -316 250 -102 100 -148 152 -143 160 5 8 4 11 -2 7
-6 -4 -25 10 -44 31 -18 20 -65 71 -104 112 -94 101 -106 116 -211 255 -178
236 -291 414 -430 675 -70 133 -106 215 -148 340 -67 200 -122 401 -147 534
-20 107 -29 130 -29 71 0 -21 -3 -36 -6 -32 -9 9 -25 555 -18 606 5 33 16 53
47 84 l40 40 166 -7 c91 -3 242 -13 336 -21z m1711 -277 c4 -13 7 -122 7 -243
0 -194 -3 -229 -22 -300 -25 -92 -65 -183 -115 -258 -58 -88 -276 -301 -291
-285 -10 10 8 138 20 138 7 0 33 18 59 41 105 93 201 382 241 727 14 114 15
145 5 157 -16 19 -14 21 30 33 52 15 58 14 66 -10z m1159 -128 c3 -5 -1 -10
-10 -10 -9 0 -13 5 -10 10 3 6 8 10 10 10 2 0 7 -4 10 -10z m45 3 c0 -5 12
-17 27 -27 14 -11 23 -14 18 -7 -6 10 -3 11 11 3 11 -5 25 -8 32 -6 7 1 8 0 2
-3 -18 -9 0 -22 25 -17 13 2 27 -1 31 -7 4 -8 3 -9 -5 -5 -10 7 -49 -21 -40
-28 17 -14 50 -25 63 -20 19 7 20 0 4 -26 -11 -17 -10 -22 2 -30 8 -5 11 -12
7 -16 -4 -4 -16 1 -27 11 -16 14 -17 20 -8 27 10 6 8 8 -4 8 -10 0 -26 10 -38
22 -18 19 -20 20 -20 4 0 -12 -5 -16 -15 -12 -46 19 -49 18 -26 -3 13 -11 22
-24 19 -27 -7 -7 -48 18 -48 28 0 5 -7 8 -15 8 -21 0 -19 -9 8 -31 12 -10 17
-18 11 -19 -6 0 -21 11 -33 24 l-23 24 22 7 c12 4 19 9 17 12 -3 2 -14 0 -25
-6 -13 -7 -22 -7 -30 1 -7 7 -15 8 -19 4 -4 -4 0 -12 10 -17 9 -6 17 -15 17
-20 0 -6 -7 -4 -15 4 -8 9 -20 17 -27 20 -9 3 -6 10 10 22 12 9 22 23 22 32 0
9 6 13 15 9 8 -3 15 -1 15 3 0 23 -28 16 -44 -10 -20 -34 -39 -37 -69 -8 -15
13 -17 18 -6 14 10 -4 20 -2 24 4 3 6 1 11 -4 11 -6 0 -11 5 -11 11 0 5 4 8 9
4 6 -3 14 2 19 11 6 11 11 13 16 5 10 -16 53 -14 68 4 14 16 28 19 28 8z
m-119 -107 c8 5 10 3 4 -6 -4 -7 -2 -16 6 -21 8 -5 9 -9 4 -9 -11 0 -65 47
-65 57 0 3 9 -2 19 -11 11 -10 25 -15 32 -10z m269 9 c14 -16 10 -18 -14 -9
-9 3 -16 10 -16 15 0 14 16 11 30 -6z m-6806 -112 c110 -144 485 -482 725
-653 50 -36 117 -84 148 -107 97 -72 141 -94 210 -107 l67 -12 63 -119 c34
-65 61 -120 59 -122 -5 -5 -117 49 -311 151 -183 97 -369 220 -563 372 -74 59
-218 212 -280 297 -30 42 -59 74 -63 70 -13 -13 -29 -217 -29 -363 0 -146 21
-359 47 -480 19 -89 115 -344 172 -458 80 -159 213 -334 373 -488 123 -119
370 -288 494 -339 l59 -24 -3 -68 c-2 -37 -7 -71 -11 -76 -4 -4 -235 -10 -514
-14 l-507 -6 0 -71 c0 -88 -35 -374 -55 -441 -8 -27 -19 -84 -25 -125 -6 -41
-16 -90 -22 -108 -13 -41 -2 -55 82 -102 34 -19 60 -40 60 -49 -1 -9 -7 -43
-15 -76 -8 -33 -26 -181 -40 -330 -14 -148 -32 -313 -40 -365 -21 -130 -45
-355 -45 -414 0 -49 0 -50 -19 -29 -19 20 -19 73 0 73 13 0 11 37 -2 45 -6 4
-13 4 -17 0 -4 -4 -1 -10 6 -12 6 -3 12 -9 12 -15 0 -6 -9 -3 -20 7 -20 18
-20 18 8 42 21 20 22 23 5 14 -30 -15 -30 -15 -28 29 2 32 -1 40 -14 40 -9 0
-22 -5 -28 -11 -9 -9 -12 -7 -10 8 1 15 7 18 25 15 19 -4 23 -1 20 14 -4 24
-21 43 -32 37 -4 -3 -6 3 -3 13 6 22 14 84 22 164 28 302 47 487 55 550 12 97
12 120 0 120 -12 0 -50 31 -103 85 -22 22 -37 34 -33 28 8 -15 -3 -17 -23 -4
-12 8 -12 15 1 48 26 63 86 291 108 410 22 117 38 316 36 466 l-1 87 380 0
c209 0 404 3 433 6 62 8 59 16 -28 71 -106 68 -321 268 -438 408 -160 191
-265 383 -351 641 -99 297 -131 632 -97 1002 9 95 16 216 16 268 0 87 1 93 18
83 9 -6 39 -40 66 -76z m6536 45 c0 -12 -6 -9 -26 13 -19 22 -19 22 4 8 12 -8
22 -17 22 -21z m220 20 c0 -7 14 -21 31 -31 19 -11 29 -23 26 -31 -3 -8 -1
-17 6 -19 9 -3 9 -8 -1 -20 -8 -9 -11 -25 -7 -36 3 -11 1 -23 -6 -27 -8 -4 -9
-3 -5 4 4 7 4 16 1 22 -8 13 -45 -11 -45 -29 0 -12 -3 -12 -12 -3 -10 10 -10
15 2 22 47 29 49 32 34 54 -17 24 -18 36 -3 36 5 0 7 -6 3 -12 -6 -10 -4 -10
7 0 10 9 10 15 1 24 -9 10 -16 9 -29 -4 -14 -14 -14 -20 -3 -33 11 -13 10 -15
-4 -9 -11 4 -16 1 -16 -11 0 -12 5 -15 16 -11 10 4 14 1 12 -6 -8 -24 -27 -19
-34 9 -4 15 -15 35 -25 44 -14 12 -15 19 -7 27 7 7 17 12 23 12 5 0 4 -4 -4
-9 -12 -8 -13 -12 -2 -25 12 -15 15 -13 28 11 9 18 11 29 4 31 -14 5 -14 32
-1 32 6 0 10 -6 10 -12z m-125 -28 c3 -5 1 -10 -4 -10 -6 0 -11 5 -11 10 0 6
2 10 4 10 3 0 8 -4 11 -10z m-20 -28 c-3 -3 -11 0 -18 7 -9 10 -8 11 6 5 10
-3 15 -9 12 -12z m59 2 c14 -14 14 -18 0 -45 -12 -24 -13 -34 -3 -45 7 -9 8
-14 1 -14 -6 0 -13 6 -15 13 -4 8 -6 7 -6 -3 0 -8 3 -21 8 -28 6 -11 14 -8 34
11 13 14 22 28 19 31 -3 3 -1 6 4 6 6 0 10 -17 10 -37 1 -21 -1 -30 -3 -20 -3
9 -9 17 -14 17 -6 0 -8 -10 -4 -22 5 -18 4 -20 -4 -8 -10 13 -12 13 -21 0 -9
-13 -12 -13 -21 3 -5 9 -17 17 -24 17 -18 0 -19 -12 -3 -28 8 -8 8 -12 1 -12
-19 0 -25 34 -8 46 10 7 13 18 9 30 -4 11 -4 16 1 12 4 -4 16 7 25 25 16 29
16 34 2 50 -19 21 -9 23 12 1z m-19 -32 c-8 -8 -25 10 -19 20 4 6 9 5 15 -3 4
-7 6 -15 4 -17z m195 18 c0 -5 -4 -10 -10 -10 -5 0 -10 5 -10 10 0 6 5 10 10
10 6 0 10 -4 10 -10z m13 -25 c-3 -9 -8 -14 -10 -11 -3 3 -2 9 2 15 9 16 15
13 8 -4z m-223 -17 c0 -6 -6 -5 -15 2 -8 7 -15 14 -15 16 0 2 7 1 15 -2 8 -4
15 -11 15 -16z m60 -18 c0 -5 -4 -10 -10 -10 -5 0 -10 5 -10 10 0 6 5 10 10
10 6 0 10 -4 10 -10z m-185 -10 c4 -6 1 -9 -7 -8 -7 2 -12 -3 -10 -10 1 -8 -2
-11 -8 -7 -8 5 -7 11 1 21 14 17 16 17 24 4z m85 -35 c0 -12 -19 -12 -23 0 -4
9 -1 12 9 8 7 -3 14 -7 14 -8z m0 -39 c0 -2 -8 -10 -17 -17 -16 -13 -17 -12
-4 4 13 16 21 21 21 13z m-4715 -301 l0 -130 128 -3 128 -3 -6 -27 c-3 -15 -7
-60 -10 -101 -2 -40 -6 -76 -9 -79 -4 -3 -6 0 -6 7 0 10 -13 11 -51 6 -39 -5
-54 -4 -60 6 -8 12 -10 12 -18 0 -6 -9 -10 -10 -13 -1 -3 9 -14 8 -46 -2 l-42
-13 0 -127 0 -128 -77 0 c-131 0 -123 -10 -123 147 l0 134 -135 -3 -135 -3 0
67 c0 37 -4 78 -9 91 -13 33 2 37 145 37 132 0 124 -10 124 147 l0 102 43 4
c23 2 71 3 107 3 l65 -1 0 -130z m2595 100 c52 -27 65 -85 34 -150 -27 -57
-82 -77 -151 -54 -90 29 -101 162 -18 207 29 16 101 14 135 -3z m2674 -34
c-16 -11 -14 -31 1 -25 8 4 15 11 15 17 0 5 10 2 22 -9 12 -10 18 -13 13 -5
-6 11 -4 13 9 8 13 -5 17 -3 13 7 -3 8 0 17 8 20 10 3 12 0 8 -11 -5 -12 -2
-15 10 -10 11 4 17 1 17 -8 0 -8 5 -15 10 -15 6 0 10 5 10 12 0 6 8 4 19 -6
11 -10 17 -25 14 -37 -5 -18 11 -27 20 -11 2 4 3 3 2 -3 -1 -5 1 -19 6 -30 7
-19 8 -19 8 2 1 26 17 38 27 22 4 -7 3 -9 -4 -5 -7 4 -9 -8 -7 -39 4 -34 1
-45 -9 -45 -8 0 -13 -8 -11 -17 1 -10 0 -12 -2 -6 -3 10 -10 10 -26 2 -16 -7
-14 -4 6 11 15 12 24 26 21 32 -4 5 -16 0 -30 -13 -13 -12 -24 -18 -24 -11 0
6 -13 17 -29 25 -26 13 -30 13 -35 0 -4 -10 -10 -11 -25 -3 -25 13 -31 13 -31
-1 0 -5 4 -8 9 -4 5 3 12 1 16 -5 3 -5 0 -10 -7 -10 -18 0 -57 29 -41 30 7 0
10 7 6 17 -5 14 -8 13 -15 -6 -4 -13 -6 -27 -3 -31 3 -5 0 -12 -6 -16 -7 -4
-9 -3 -5 4 3 6 -2 15 -11 21 -14 9 -15 12 -5 19 10 7 8 11 -9 15 -30 8 -41 0
-34 -24 8 -24 -8 -25 -31 -1 -16 15 -17 15 -12 0 4 -10 0 -22 -10 -30 -15 -11
-15 -11 -5 3 10 12 10 18 1 27 -9 9 -9 12 1 12 8 0 10 7 6 19 -3 11 -1 22 5
26 6 3 8 11 5 16 -4 5 -1 9 4 9 14 0 14 -27 0 -32 -12 -4 -1 -38 13 -38 5 0 7
9 3 20 -4 14 2 28 20 45 14 15 23 31 20 36 -4 5 -2 9 4 9 5 0 15 -8 20 -17 9
-16 10 -16 11 4 0 32 11 54 22 47 6 -4 6 -9 2 -13z m-74 -35 c0 -2 -7 -7 -16
-10 -8 -3 -12 -2 -9 4 6 10 25 14 25 6z m20 -106 c0 -11 5 -20 10 -20 6 0 10
-4 10 -9 0 -5 -8 -7 -17 -5 -18 5 -29 54 -12 54 5 0 9 -9 9 -20z m300 16 c0
-3 -4 -8 -10 -11 -5 -3 -10 -1 -10 4 0 6 5 11 10 11 6 0 10 -2 10 -4z m13 -36
c-3 -12 -8 -19 -11 -16 -5 6 5 36 12 36 2 0 2 -9 -1 -20z m-356 -15 c-4 -8 -2
-17 3 -20 6 -4 10 -1 10 4 0 6 8 11 18 11 12 0 9 -5 -11 -18 -18 -11 -26 -23
-23 -35 2 -9 0 -14 -6 -11 -5 3 -8 15 -5 25 3 10 1 21 -4 24 -10 7 0 35 13 35
6 0 8 -7 5 -15z m133 -15 c0 -5 -4 -10 -10 -10 -5 0 -10 5 -10 10 0 6 5 10 10
10 6 0 10 -4 10 -10z m-164 -12 c4 -6 3 -8 -4 -4 -23 14 -21 -13 3 -38 29 -31
31 -38 10 -30 -8 4 -15 1 -15 -4 0 -6 9 -13 19 -17 19 -6 19 -35 0 -35 -4 0
-6 6 -3 14 3 9 -3 17 -16 21 -16 5 -19 10 -11 18 13 13 15 31 2 23 -13 -8 -20
41 -8 53 14 14 14 14 23 -1z m-2826 -13 c89 -46 93 -151 7 -204 -64 -39 -130
-22 -163 40 -18 35 -12 77 17 125 31 52 85 67 139 39z m540 0 c89 -46 72 -183
-25 -215 -42 -14 -72 -8 -109 21 -43 34 -59 74 -46 114 26 78 111 116 180 80z
m2354 -4 c3 -5 -1 -14 -8 -20 -12 -10 -13 -8 -9 8 6 23 9 25 17 12z m61 -20
c-6 -5 -25 10 -25 20 0 5 6 4 14 -3 8 -7 12 -15 11 -17z m217 7 c-7 -7 -12 -8
-12 -2 0 14 12 26 19 19 2 -3 -1 -11 -7 -17z m48 12 c0 -5 -2 -10 -4 -10 -3 0
-8 5 -11 10 -3 6 -1 10 4 10 6 0 11 -4 11 -10z m-270 -44 c0 -2 -7 -7 -16 -10
-8 -3 -12 -2 -9 4 6 10 25 14 25 6z m-1144 -88 c-13 -157 -92 -494 -122 -519
-8 -7 -35 -51 -59 -98 -83 -159 -232 -330 -393 -451 -115 -86 -163 -114 -172
-99 -4 5 -16 0 -27 -10 -11 -11 -36 -23 -55 -26 -30 -6 -36 -4 -41 15 -5 18
-9 20 -26 10 -12 -6 -21 -9 -21 -6 0 2 -21 -2 -47 -10 -63 -19 -43 -3 32 26
33 13 65 28 70 33 7 7 3 7 -10 2 -179 -68 -208 -75 -220 -55 -4 6 8 16 26 22
63 22 264 127 338 176 202 135 392 353 474 545 73 170 57 179 -82 44 -53 -52
-112 -104 -131 -118 -19 -13 -80 -61 -134 -107 -101 -85 -316 -232 -410 -279
-28 -14 -59 -32 -68 -41 -17 -14 -18 -12 -18 27 0 80 -18 124 -61 151 -23 14
-45 25 -49 25 -5 0 -20 9 -32 20 -13 11 -43 22 -67 25 -59 7 -63 26 -9 40 317
80 536 178 833 374 148 98 237 167 375 290 47 42 91 76 99 76 11 0 12 -16 7
-82z m-5723 16 c34 -32 80 -71 103 -88 23 -17 68 -51 100 -76 83 -65 289 -196
421 -269 143 -80 260 -130 457 -196 87 -30 161 -56 164 -60 13 -13 -19 -27
-62 -27 -25 0 -44 -3 -41 -8 3 -5 -16 -16 -42 -26 -27 -9 -56 -25 -67 -33 -27
-22 -46 -73 -46 -121 0 -22 -3 -40 -7 -40 -14 0 -162 85 -248 143 -117 78
-201 144 -301 237 -130 121 -256 234 -277 249 -18 13 -19 12 -12 -30 22 -132
158 -343 329 -512 107 -107 336 -255 514 -333 2 -1 -4 -26 -12 -55 -12 -40
-15 -45 -12 -19 4 40 14 36 -107 40 -42 1 -79 18 -71 32 5 8 2 9 -10 5 -18 -7
-141 28 -163 46 -7 5 -13 6 -13 2 0 -5 -9 2 -19 14 -11 12 -22 22 -25 22 -3
-1 -11 -1 -16 -1 -6 0 -62 51 -126 113 -117 112 -239 263 -296 363 -16 30 -33
52 -38 49 -11 -7 -44 76 -74 185 -30 114 -82 450 -69 450 3 0 33 -25 66 -56z
m6972 -43 c3 -5 1 -12 -5 -16 -5 -3 -10 1 -10 9 0 18 6 21 15 7z m-2788 -80
c67 -31 90 -97 58 -166 -20 -40 -51 -55 -116 -55 -42 0 -55 5 -80 29 -24 24
-29 38 -29 76 0 59 23 103 63 120 42 19 54 18 104 -4z m2227 -67 c5 -14 4 -15
-9 -4 -17 14 -19 20 -6 20 5 0 12 -7 15 -16z m40 -10 c3 -8 2 -12 -4 -9 -6 3
-10 10 -10 16 0 14 7 11 14 -7z m-3605 -9 c16 -8 47 -35 69 -60 50 -56 50 -61
52 -420 0 -154 5 -399 10 -545 12 -334 12 -356 1 -345 -12 14 -31 97 -31 136
0 46 -10 30 -12 -18 -1 -44 -4 -44 -55 -18 -13 7 -20 14 -17 17 2 3 -2 8 -11
12 -9 3 -14 2 -10 -3 3 -5 -18 -8 -47 -6 -68 4 -66 4 -48 15 11 7 6 8 -17 4
-25 -5 -33 -2 -42 15 -6 11 -11 24 -10 28 3 18 -1 116 -5 112 -2 -2 -7 -68
-11 -147 -3 -79 -9 -150 -12 -158 -24 -62 -28 134 -17 810 l7 449 36 40 c42
47 108 97 128 97 8 0 27 -7 42 -15z m3574 -33 c-5 -22 -23 -31 -23 -12 0 10
23 40 27 36 1 -1 0 -12 -4 -24z m11 -45 c-16 -14 -24 -29 -20 -35 11 -17 29
-15 22 3 -3 9 0 15 10 15 9 0 23 -18 32 -40 9 -22 21 -40 25 -40 5 0 5 5 1 12
-4 7 -3 8 5 4 9 -6 9 -11 1 -21 -7 -8 -9 -24 -4 -37 7 -23 6 -23 -15 -4 -11
11 -21 14 -21 8 0 -6 5 -14 10 -17 6 -3 10 -13 10 -22 0 -14 -3 -14 -20 2 -23
20 -26 14 -8 -18 10 -19 9 -20 -4 -10 -8 7 -18 10 -22 6 -4 -4 -12 -1 -17 7
-8 11 -9 10 -4 -7 4 -14 2 -23 -4 -23 -6 0 -11 5 -11 10 0 6 -5 10 -11 10 -6
0 -8 -8 -5 -17 5 -15 3 -14 -9 2 -9 11 -13 25 -11 31 3 8 -3 10 -16 6 -18 -4
-19 -7 -6 -16 16 -12 13 -36 -3 -36 -6 0 -7 5 -3 11 3 6 1 15 -7 20 -11 6 -10
12 5 28 10 11 15 24 12 30 -8 12 38 26 53 16 16 -9 13 6 -4 25 -13 14 -12 16
5 16 11 0 20 -5 20 -10 0 -5 2 -7 5 -4 13 13 -8 36 -28 31 -17 -4 -19 -2 -8 5
8 6 11 17 8 26 -4 9 -3 16 2 16 5 0 11 9 14 20 3 12 14 20 27 20 20 0 20 -1
-6 -23z m71 -9 c-4 -50 -4 -50 -16 -42 -8 4 -7 9 2 15 11 7 9 10 -8 15 -28 8
-30 24 -3 24 11 0 20 5 20 10 0 6 2 10 4 10 2 0 2 -15 1 -32z m30 -58 c3 -5 1
-10 -4 -10 -6 0 -11 5 -11 10 0 6 2 10 4 10 3 0 8 -4 11 -10z m-210 -89 c-3
-6 -11 -8 -17 -5 -6 4 -5 9 3 15 16 10 23 4 14 -10z m-3255 -1564 c6 -23 19
-71 30 -107 10 -36 58 -218 105 -405 91 -360 166 -635 191 -699 8 -21 13 -40
12 -42 -2 -2 -40 3 -83 11 -44 8 -100 14 -124 15 -36 0 -42 3 -37 17 4 9 9 50
12 91 4 72 4 74 -26 102 -26 24 -36 27 -70 23 -34 -5 -40 -3 -40 13 0 11 -5
26 -11 34 -11 15 -10 6 7 -58 6 -22 4 -23 -27 -20 l-34 3 -3 65 -3 65 -182 0
-181 0 -8 -45 c-14 -85 -17 -90 -44 -90 -26 0 -26 1 -20 50 5 40 4 50 -8 50
-8 0 -17 6 -20 13 -3 6 -3 2 0 -11 3 -12 2 -22 -3 -21 -4 1 -17 -1 -28 -5 -11
-5 -27 -10 -35 -14 -12 -4 -12 -6 3 -9 27 -7 20 -23 -10 -24 -24 0 -25 -2 -9
-8 19 -7 19 -8 -1 -13 -11 -3 -27 -2 -34 3 -8 5 -27 9 -44 9 l-30 1 25 14 c21
12 22 14 6 15 -12 0 -16 5 -13 15 4 8 3 17 -2 19 -8 5 -55 -140 -66 -204 l-6
-35 20 35 c10 19 17 38 14 42 -2 5 1 8 7 8 7 0 10 -7 6 -15 -3 -8 -3 -22 1
-31 5 -13 7 -13 14 -2 6 9 9 6 9 -10 0 -20 -3 -21 -20 -12 -11 6 -20 7 -20 2
0 -5 12 -14 26 -21 17 -7 24 -17 20 -26 -3 -8 0 -15 6 -15 8 0 8 -3 2 -9 -5
-5 -30 -6 -56 -2 -27 4 -48 5 -48 1 0 -10 -59 -34 -66 -27 -3 3 5 41 20 84 14
43 52 191 85 328 34 138 72 292 87 344 14 51 36 137 49 190 13 53 30 114 38
136 8 22 22 83 32 135 l18 95 278 -3 278 -3 11 -42z m-1640 -9 c19 -26 82
-127 139 -225 115 -196 193 -323 201 -323 3 0 6 19 8 43 1 23 9 94 17 157 8
63 16 179 17 257 l3 143 157 0 157 0 -5 -132 c-2 -73 -9 -254 -14 -403 -10
-271 -24 -549 -35 -701 l-7 -81 -86 -6 c-48 -3 -96 -8 -108 -10 -54 -13 -111
-32 -132 -45 -12 -8 -24 -13 -26 -11 -2 2 0 69 6 147 l10 144 -83 121 c-46 67
-100 144 -120 170 -44 58 -129 210 -129 230 0 7 -8 21 -18 31 -18 16 -19 8
-26 -241 -3 -142 -11 -336 -17 -433 -6 -96 -11 -189 -12 -207 -1 -30 -3 -32
-37 -31 -47 0 -208 -46 -272 -78 -26 -13 -48 -21 -48 -17 0 5 5 26 10 48 11
47 45 424 60 680 6 99 20 285 31 413 10 129 19 272 19 318 l0 83 138 4 c75 1
144 3 152 2 8 0 30 -21 50 -47z m2730 -107 c0 -128 -2 -152 -13 -137 -9 13
-36 19 -109 26 -54 5 -109 12 -123 16 l-25 6 5 -73 c16 -242 46 -1060 40
-1067 -2 -2 -16 6 -32 18 -35 25 -259 65 -278 50 -14 -12 -25 260 -25 615 0
288 -9 447 -24 437 -6 -4 -73 -7 -149 -7 l-138 0 8 55 c4 30 8 92 8 137 l0 83
427 -3 428 -2 0 -154z m-3184 127 c-4 -13 -16 -63 -26 -113 -28 -133 -39 -165
-56 -165 -8 0 -13 4 -10 8 2 4 -23 3 -57 -3 -62 -10 -62 -10 -22 -15 30 -4 3
-10 -105 -23 -169 -20 -202 -21 -180 -7 10 7 -5 9 -50 5 -35 -3 -66 -7 -68
-10 -2 -2 1 -11 6 -21 6 -10 6 -30 1 -48 -5 -17 -10 -67 -13 -111 -3 -44 -9
-102 -14 -128 l-9 -49 26 5 c14 3 71 21 126 40 117 42 275 86 275 78 0 -3 -11
-27 -24 -52 -13 -26 -31 -76 -41 -113 -10 -36 -21 -64 -24 -62 -3 2 -7 -12 -8
-32 -3 -50 -12 -82 -23 -82 -6 0 -10 7 -10 16 0 11 -5 14 -16 10 -9 -3 -27 -9
-40 -12 -13 -3 -22 -10 -19 -14 3 -5 -4 -12 -16 -15 -11 -4 -19 -9 -17 -11 4
-3 32 4 83 21 11 3 7 -1 -9 -10 -27 -16 -132 -55 -145 -55 -3 0 2 5 12 11 9 6
15 15 11 21 -4 6 2 8 17 4 24 -6 24 -6 2 5 -23 12 -32 10 -144 -32 -25 -10
-26 -14 -32 -117 -4 -59 -13 -156 -22 -217 -8 -60 -17 -173 -21 -250 -4 -77
-10 -150 -13 -163 -5 -17 -22 -29 -71 -46 -99 -35 -191 -83 -231 -123 -20 -19
-39 -31 -41 -26 -3 4 5 107 18 228 63 629 76 774 99 1162 27 440 27 440 -13
486 -8 9 -13 19 -11 21 2 2 33 -1 68 -7 72 -11 751 7 811 22 52 13 53 13 46
-11z m3602 7 c7 -7 58 -783 72 -1110 6 -132 15 -273 20 -313 15 -109 15 -107
-22 -84 -18 11 -85 34 -148 52 -63 17 -122 35 -130 39 -21 11 -28 100 -30 386
-2 304 -33 857 -56 1005 l-6 35 149 -3 c81 -2 149 -5 151 -7z m694 -25 c114
-6 243 -8 286 -4 l79 7 6 -114 c4 -63 16 -172 27 -243 11 -71 19 -130 18 -131
-2 -1 -32 -13 -68 -25 -69 -24 -93 -37 -47 -26 74 18 -28 -44 -113 -69 -14 -4
-33 -14 -43 -23 -9 -8 -19 -13 -21 -11 -8 8 -11 307 -3 302 5 -3 7 3 5 13 -3
15 -15 19 -83 22 -44 2 -113 9 -153 16 l-73 12 6 -95 c3 -53 10 -134 15 -181
5 -47 14 -166 20 -265 6 -99 15 -241 20 -316 6 -74 10 -142 10 -151 0 -12 41
-33 142 -72 77 -31 143 -54 146 -51 6 6 -16 224 -30 288 -5 27 -7 51 -4 54 3
3 27 -8 53 -25 41 -26 213 -114 243 -124 6 -2 17 -104 25 -238 8 -129 19 -289
25 -355 5 -65 7 -122 4 -125 -3 -3 -15 8 -27 25 -38 51 -51 60 -143 98 -49 20
-138 57 -199 82 -60 26 -158 64 -217 85 -221 81 -277 118 -318 214 -21 47 -35
213 -50 591 -6 138 -20 364 -32 503 l-21 253 20 27 c11 15 37 37 58 48 42 24
19 24 437 4z m-4789 -317 c-13 -2 -33 -2 -45 0 -13 2 -3 4 22 4 25 0 35 -2 23
-4z m2590 -855 c-8 -43 -17 -48 -90 -48 l-63 0 0 -30 c0 -28 1 -29 57 -32 60
-3 74 -16 47 -43 -11 -11 -30 -15 -55 -14 -45 4 -53 -2 -44 -30 6 -18 14 -21
71 -21 l64 0 0 -41 0 -42 -96 7 c-53 4 -101 9 -105 12 -5 3 -9 72 -9 154 l0
149 88 4 c48 1 99 4 114 5 26 2 27 0 21 -30z m-342 12 c48 -14 59 -41 59 -154
l0 -94 -35 -31 c-33 -29 -41 -31 -115 -31 l-79 0 2 153 2 152 25 6 c40 10 102
10 141 -1z m-839 -475 c3 -3 -3 -31 -13 -62 -11 -31 -19 -72 -19 -91 0 -31 -2
-34 -22 -27 -29 9 -37 9 -125 7 l-73 -2 0 -187 c0 -104 -3 -265 -7 -360 l-6
-172 -31 26 c-27 22 -37 25 -84 20 -31 -3 -63 -13 -74 -24 l-21 -18 7 135 c3
74 9 235 13 358 l6 223 -89 -3 c-49 -2 -96 -7 -105 -11 -15 -7 -16 2 -15 87
l1 96 275 3 c151 1 298 3 326 5 28 1 53 0 56 -3z m718 -3 c0 -2 -6 -15 -14
-30 -7 -15 -19 -53 -26 -84 -7 -31 -16 -57 -19 -56 -3 0 -84 0 -178 -1 l-173
-1 0 -83 0 -83 157 -2 c86 -2 158 -4 160 -6 2 -1 -6 -20 -16 -42 -11 -22 -23
-52 -26 -67 -4 -15 -10 -29 -14 -32 -4 -2 -57 -6 -117 -9 -162 -8 -154 -2
-154 -103 l0 -84 191 3 191 3 -6 -35 c-3 -19 -6 -64 -6 -99 0 -58 -1 -62 -17
-50 -13 11 -69 14 -269 14 -237 0 -254 -2 -275 -20 l-22 -20 6 45 c4 25 7 225
9 445 l2 400 308 0 c169 0 308 -1 308 -3z m387 -114 c39 -68 84 -149 102 -180
18 -32 37 -60 42 -64 16 -9 60 48 131 169 35 59 75 126 89 148 l26 40 99 4 99
4 4 -446 3 -446 -23 17 c-37 25 -139 22 -169 -6 l-23 -21 4 169 c1 93 2 214 1
269 l-2 100 -32 -39 c-18 -22 -45 -57 -59 -78 -32 -47 -138 -168 -147 -168 -4
0 -46 52 -92 115 -74 101 -86 113 -91 93 -6 -22 -7 -22 -20 7 -12 27 -14 4
-17 -210 -2 -154 -6 -235 -12 -225 -7 12 -27 14 -87 13 -67 -2 -80 -6 -96 -25
-17 -22 -17 -6 -15 429 l3 453 106 0 106 0 70 -122z m951 -223 c2 -181 6 -331
7 -333 2 -2 56 -6 121 -9 l117 -6 -5 341 -5 342 109 0 c95 0 109 -2 104 -15
-3 -9 -1 -174 4 -367 11 -389 13 -368 -53 -429 l-32 -28 -212 -1 c-117 0 -223
4 -238 10 -14 5 -50 33 -80 61 l-54 51 1 337 c0 185 -2 346 -6 359 l-8 23 113
-3 113 -3 4 -330z m-2931 98 c-4 -87 -10 -283 -13 -435 -4 -157 -11 -278 -16
-278 -5 0 -7 10 -4 23 3 12 3 16 0 9 -3 -6 -10 -10 -15 -7 -10 7 0 -24 14 -43
7 -8 5 -18 -5 -30 -9 -9 -13 -22 -11 -29 2 -6 0 -14 -5 -17 -5 -3 -8 5 -7 17
1 12 -2 28 -8 35 -8 10 -7 12 4 10 9 -2 13 4 11 17 -8 44 -21 36 -28 -16 l-7
-54 -12 55 c-6 30 -16 64 -22 74 -9 16 -11 6 -11 -50 0 -88 -3 -100 -11 -44
-3 25 -3 196 1 380 4 184 5 340 3 347 -4 11 -312 -85 -428 -134 -95 -40 -199
-73 -210 -66 -6 3 -7 1 -3 -5 7 -12 -10 -17 -47 -14 -10 1 -15 -3 -12 -8 6 -9
-9 -18 -62 -34 -18 -6 -21 -4 -15 16 3 12 16 33 29 46 30 30 29 34 -4 26 -27
-6 -27 -5 -8 9 11 8 30 17 41 21 18 6 21 3 18 -20 -1 -14 0 -23 3 -21 2 3 5 9
5 14 0 19 20 43 35 43 12 0 14 3 7 10 -8 8 -19 8 -38 0 -15 -5 -35 -10 -44
-10 -47 0 413 181 638 250 91 28 176 55 190 60 55 19 53 23 47 -147z m-1380
-15 c-3 -8 -6 -5 -6 6 -1 11 2 17 5 13 3 -3 4 -12 1 -19z m-5 -100 c-2 -35 -7
-76 -12 -93 -8 -28 -8 -26 -9 16 -1 58 10 139 18 139 4 0 5 -28 3 -62z m115 5
c-3 -10 -5 -4 -5 12 0 17 2 24 5 18 2 -7 2 -21 0 -30z m373 -58 c0 -3 -20 -14
-44 -25 -35 -15 -174 -80 -208 -97 -5 -2 -8 -2 -8 1 0 7 126 71 200 102 63 27
60 26 60 19z m4800 -30 c5 3 10 2 10 -3 0 -6 15 -9 32 -8 l33 1 6 -60 c4 -33
10 -185 14 -337 9 -315 11 -307 -66 -239 l-43 38 -7 129 c-11 195 -10 524 2
496 5 -13 13 -20 19 -17z m-4181 -234 c-2 -262 -13 -429 -30 -445 -11 -12 -55
28 -76 68 -13 26 -15 64 -9 260 4 127 9 251 12 276 9 83 12 88 38 83 13 -3 26
-1 29 4 4 5 13 10 22 10 15 0 16 -25 14 -256z m-649 193 c0 -14 -4 -23 -10
-19 -5 3 -10 15 -10 26 0 10 5 19 10 19 6 0 10 -12 10 -26z m415 -296 c-5
-139 -11 -263 -14 -277 -11 -38 -36 -49 -61 -26 -46 42 -48 57 -40 261 5 104
12 208 16 229 6 35 8 37 20 20 10 -14 14 -15 14 -4 0 8 3 10 8 4 8 -12 52 -18
51 -7 -3 18 2 52 7 52 3 0 3 -113 -1 -252z m4705 228 c33 -15 37 -51 42 -319
l3 -212 -35 -3 c-28 -2 -39 3 -55 25 -18 25 -21 51 -28 258 -4 127 -5 240 -2
253 6 24 19 24 75 -2z m-5449 -14 c17 6 33 8 36 5 8 -8 -59 -24 -79 -19 -15 4
-16 8 -5 26 l12 21 3 -22 c3 -19 6 -20 33 -11z m3276 13 c9 -24 -1 -27 -15 -5
-8 13 -8 20 -2 20 6 0 13 -7 17 -15z m28 -65 c9 -16 13 -30 11 -30 -3 0 -12
14 -21 30 -9 17 -13 30 -11 30 3 0 12 -13 21 -30z m2331 -61 c1 -5 2 -13 3
-18 0 -5 12 -8 26 -8 31 0 44 -11 27 -22 -9 -5 -6 -11 11 -18 22 -10 24 -20
36 -142 17 -173 7 -200 -58 -160 -52 31 -61 68 -61 240 0 84 3 149 8 145 4 -4
8 -12 8 -17z m-5758 -32 c8 -6 12 -6 12 2 0 6 7 11 15 11 30 0 14 -18 -47 -50
l-61 -33 6 33 c4 18 7 38 7 45 0 14 47 9 68 -8z m557 -37 c7 0 16 -6 19 -12 4
-7 4 -3 2 9 -3 20 -1 21 15 12 13 -7 19 -6 19 1 0 6 4 9 9 5 12 -6 3 -214 -11
-268 -8 -35 -12 -38 -41 -35 -47 4 -59 36 -52 128 9 120 18 186 23 172 2 -6
10 -12 17 -12z m713 -255 l1 -20 -9 20 c-5 11 -8 31 -8 45 l0 25 8 -25 c4 -14
8 -34 8 -45z m876 -101 c30 -58 48 -114 37 -114 -4 0 -16 9 -26 20 -12 13 -31
20 -56 20 -29 0 -39 -5 -44 -20 -3 -11 -10 -20 -15 -20 -17 0 -19 16 -5 41 22
38 53 102 60 123 7 24 15 16 49 -50z m2236 -30 c0 -46 -3 -84 -7 -84 -4 0 -28
21 -53 48 l-45 47 -3 -40 c-4 -58 -9 -70 -26 -56 -10 8 -12 31 -8 88 2 43 6
80 9 82 2 3 24 -17 48 -45 50 -55 65 -51 65 19 0 23 4 36 10 32 6 -3 10 -44
10 -91z m-2420 71 c0 -16 -22 -25 -61 -25 -27 0 -30 -3 -27 -27 2 -22 9 -29
31 -31 36 -4 34 -19 -4 -27 -39 -9 -21 -25 28 -25 17 0 35 -4 38 -10 4 -6 -20
-10 -64 -10 l-71 0 0 83 0 82 65 2 c48 1 65 -2 65 -12z m420 -4 c15 -29 13
-31 -19 -20 -21 7 -36 7 -50 -1 -22 -11 -37 -52 -27 -69 7 -11 64 -41 78 -41
16 0 7 18 -12 23 -27 7 -25 23 5 43 32 21 40 13 40 -36 0 -47 -1 -48 -50 -54
-33 -4 -42 -1 -72 29 -18 18 -33 40 -33 49 0 25 27 73 47 85 31 18 81 13 93
-8z m127 -42 c14 -108 65 -106 77 1 9 78 26 68 26 -14 0 -68 -12 -89 -60 -101
-38 -9 -72 31 -78 94 -9 96 22 114 35 20z m307 53 c2 -4 -1 -18 -8 -31 -9 -15
-16 -20 -20 -12 -4 6 -18 11 -32 11 -21 0 -25 -4 -22 -22 2 -18 10 -23 32 -23
45 -1 44 -23 -1 -27 -52 -4 -48 -22 7 -28 30 -3 46 -10 48 -21 2 -13 -8 -15
-63 -15 l-65 1 0 82 0 82 48 4 c26 2 52 4 59 5 6 1 14 -1 17 -6z m300 -23 c34
-40 33 -78 -2 -112 -65 -63 -170 -1 -141 83 22 63 101 79 143 29z m212 2 c-4
-6 -19 -11 -34 -11 -34 0 -57 -14 -48 -29 4 -6 12 -9 17 -6 14 9 51 -5 46 -18
-2 -6 -17 -11 -33 -12 -25 0 -29 -4 -32 -33 -2 -20 -8 -32 -15 -29 -8 2 -13
32 -15 80 l-3 76 53 3 c56 3 75 -3 64 -21z m459 4 c0 -5 -19 -11 -42 -13 -35
-3 -43 -7 -43 -23 0 -12 12 -24 33 -33 l32 -14 -32 -7 c-38 -9 -44 -25 -9 -25
31 0 56 -10 56 -21 0 -5 -25 -9 -55 -9 l-55 0 0 83 0 82 58 -5 c31 -3 57 -9
57 -15z m185 4 c15 -26 7 -34 -18 -20 -53 29 -108 -43 -62 -81 25 -21 29 -21
50 -8 13 8 12 11 -4 23 -23 17 -6 32 24 22 23 -7 28 -53 8 -73 -42 -42 -136
20 -124 82 12 64 101 102 126 55z m190 6 c0 -13 -12 -19 -65 -28 -18 -3 -17
-6 12 -34 l33 -31 -25 -6 c-36 -9 -31 -26 9 -26 18 0 39 -7 46 -15 11 -13 5
-15 -49 -15 l-61 0 0 63 c0 34 -3 72 -6 85 -6 21 -4 22 50 22 43 0 56 -3 56
-15z m606 5 c33 -13 25 -24 -19 -24 -42 -1 -50 -31 -10 -39 70 -14 81 -62 21
-93 -29 -15 -34 -15 -65 0 -45 22 -43 39 5 32 43 -7 80 8 47 20 -59 21 -85 34
-85 43 0 27 21 60 42 64 13 2 26 5 30 6 4 0 19 -4 34 -9z m-3094 -57 l3 -58
40 -5 c28 -3 41 -10 43 -23 3 -15 -4 -17 -57 -15 l-61 3 0 78 c0 61 3 77 15
77 10 0 15 -15 17 -57z m1838 10 c0 -59 6 -69 49 -80 60 -15 50 -33 -18 -33
l-61 0 0 80 c0 64 3 80 15 80 11 0 15 -12 15 -47z m1075 17 c36 -70 3 -130
-72 -130 -37 0 -45 4 -53 26 -6 14 -10 50 -10 80 l0 54 60 0 c56 0 60 -2 75
-30z m-3238 -62 c-3 -8 -6 -5 -6 6 -1 11 2 17 5 13 3 -3 4 -12 1 -19z m276
-275 c-29 -2 -78 -2 -110 0 -32 2 -8 3 52 3 61 0 87 -1 58 -3z m200 0 c-13 -2
-33 -2 -45 0 -13 2 -3 4 22 4 25 0 35 -2 23 -4z m435 0 c-10 -2 -26 -2 -35 0
-10 3 -2 5 17 5 19 0 27 -2 18 -5z m125 0 c-13 -2 -33 -2 -45 0 -13 2 -3 4 22
4 25 0 35 -2 23 -4z m190 0 c-7 -2 -19 -2 -25 0 -7 3 -2 5 12 5 14 0 19 -2 13
-5z m280 0 c-13 -2 -35 -2 -50 0 -16 2 -5 4 22 4 28 0 40 -2 28 -4z m230 0
c-13 -2 -35 -2 -50 0 -16 2 -5 4 22 4 28 0 40 -2 28 -4z m100 0 c-13 -2 -35
-2 -50 0 -16 2 -5 4 22 4 28 0 40 -2 28 -4z m100 0 c-13 -2 -35 -2 -50 0 -16
2 -5 4 22 4 28 0 40 -2 28 -4z m405 2 c-7 -7 -368 -8 -375 -1 -4 3 81 6 187 6
106 0 191 -2 188 -5z m807 -35 c-4 -7 3 -9 22 -4 l28 6 -31 -20 c-18 -11 -34
-26 -37 -34 -4 -10 -7 -11 -18 0 -10 9 -10 12 0 12 7 0 9 5 6 10 -4 6 -1 17 5
25 14 17 35 20 25 5z m75 -30 c0 -16 -4 -30 -10 -30 -11 0 -14 43 -3 53 11 12
13 8 13 -23z m52 13 c-5 -10 -7 -24 -5 -30 6 -16 -4 -17 -21 -1 -10 10 -9 16
8 30 27 22 29 22 18 1z m154 -21 c-17 -16 -18 -16 -5 5 7 12 15 20 18 17 3 -2
-3 -12 -13 -22z m-121 -2 c3 -5 2 -10 -4 -10 -5 0 -13 5 -16 10 -3 6 -2 10 4
10 5 0 13 -4 16 -10z m-285 -10 c0 -5 -7 -7 -15 -4 -8 4 -15 8 -15 10 0 2 7 4
15 4 8 0 15 -4 15 -10z m163 3 c-7 -2 -19 -2 -25 0 -7 3 -2 5 12 5 14 0 19 -2
13 -5z m184 -29 c-3 -3 -12 -4 -19 -1 -8 3 -5 6 6 6 11 1 17 -2 13 -5z m-67
-17 c30 -2 -23 -4 -119 -4 -96 -1 -170 2 -164 5 10 7 160 6 283 -1z"/>
<path d="M8600 9064 c0 -8 5 -12 10 -9 6 4 8 11 5 16 -9 14 -15 11 -15 -7z"/>
<path d="M8515 9000 c-3 -5 1 -10 9 -10 9 0 16 5 16 10 0 6 -4 10 -9 10 -6 0
-13 -4 -16 -10z"/>
<path d="M7360 2650 c0 -5 5 -10 10 -10 12 0 13 -40 1 -59 -7 -11 -3 -18 16
-28 30 -15 73 -17 73 -3 0 6 13 10 29 10 23 0 30 5 34 26 3 18 1 24 -9 20 -7
-3 -18 1 -24 9 -6 7 -20 11 -30 8 -11 -3 -20 -1 -20 4 0 11 -44 33 -65 33 -8
0 -15 -4 -15 -10z"/>
<path d="M7640 2540 c0 -5 10 -10 23 -10 18 0 19 2 7 10 -19 13 -30 13 -30 0z"/>
<path d="M7696 2517 c3 -10 9 -15 12 -12 3 3 0 11 -7 18 -10 9 -11 8 -5 -6z"/>
<path d="M7620 2501 c0 -11 5 -23 10 -26 6 -4 10 5 10 19 0 14 -4 26 -10 26
-5 0 -10 -9 -10 -19z"/>
<path d="M9660 8444 c0 -8 5 -12 10 -9 6 3 10 10 10 16 0 5 -4 9 -10 9 -5 0
-10 -7 -10 -16z"/>
<path d="M9755 8450 c-3 -5 1 -10 10 -10 9 0 13 5 10 10 -3 6 -8 10 -10 10 -2
0 -7 -4 -10 -10z"/>
<path d="M9930 8450 c19 -13 30 -13 30 0 0 6 -10 10 -22 10 -19 0 -20 -2 -8
-10z"/>
<path d="M9693 8443 c-7 -2 -13 -11 -13 -18 0 -7 -5 -15 -12 -17 -9 -3 -9 -6
0 -12 7 -4 16 3 24 18 6 14 15 26 20 26 13 0 9 -18 -4 -23 -7 -2 -10 -8 -5
-12 4 -5 14 0 21 11 19 25 1 40 -31 27z"/>
<path d="M9732 8408 c-7 -7 -12 -16 -12 -20 0 -15 15 -8 28 12 13 22 3 27 -16
8z"/>
<path d="M9840 8369 c0 -5 5 -7 10 -4 6 3 10 8 10 11 0 2 -4 4 -10 4 -5 0 -10
-5 -10 -11z"/>
<path d="M4973 8203 c9 -2 23 -2 30 0 6 3 -1 5 -18 5 -16 0 -22 -2 -12 -5z"/>
<path d="M4890 8153 c0 -53 6 -55 11 -3 2 19 11 38 19 42 11 5 9 7 -7 7 -21 1
-23 -4 -23 -46z"/>
<path d="M5182 8160 c0 -19 2 -27 5 -17 2 9 2 25 0 35 -3 9 -5 1 -5 -18z"/>
<path d="M8580 7490 c0 -5 5 -10 10 -10 6 0 10 5 10 10 0 6 -4 10 -10 10 -5 0
-10 -4 -10 -10z"/>
<path d="M8495 7470 c3 -5 11 -10 16 -10 6 0 7 5 4 10 -3 6 -11 10 -16 10 -6
0 -7 -4 -4 -10z"/>
<path d="M8600 7466 c0 -2 7 -7 16 -10 8 -3 12 -2 9 4 -6 10 -25 14 -25 6z"/>
<path d="M8485 7440 c3 -5 8 -10 11 -10 2 0 4 5 4 10 0 6 -5 10 -11 10 -5 0
-7 -4 -4 -10z"/>
<path d="M1960 3361 c0 -7 -4 -9 -10 -6 -6 4 -10 -5 -10 -19 0 -14 5 -26 12
-26 6 0 8 3 5 6 -3 4 -2 15 4 26 6 11 8 22 5 26 -3 3 -6 0 -6 -7z"/>
<path d="M1918 3003 c7 -3 16 -2 19 1 4 3 -2 6 -13 5 -11 0 -14 -3 -6 -6z"/>
<path d="M9135 6859 c-4 -6 -5 -12 -2 -15 2 -3 7 2 10 11 7 17 1 20 -8 4z"/>
<path d="M9210 6866 c0 -2 8 -10 18 -17 15 -13 16 -12 3 4 -13 16 -21 21 -21
13z"/>
<path d="M9110 6819 c0 -5 5 -7 10 -4 6 3 10 8 10 11 0 2 -4 4 -10 4 -5 0 -10
-5 -10 -11z"/>
<path d="M9240 6820 c0 -5 5 -10 10 -10 6 0 10 5 10 10 0 6 -4 10 -10 10 -5 0
-10 -4 -10 -10z"/>
<path d="M9194 6801 c4 -6 12 -11 18 -11 6 0 17 -8 24 -17 7 -10 16 -14 20
-10 10 10 -14 33 -45 42 -16 5 -21 4 -17 -4z"/>
<path d="M7235 5520 c-3 -6 1 -7 9 -4 18 7 21 14 7 14 -6 0 -13 -4 -16 -10z"/>
<path d="M3088 5388 c5 -5 16 -8 23 -6 8 3 3 7 -10 11 -17 4 -21 3 -13 -5z"/>
<path d="M4928 5163 c7 -3 16 -2 19 1 4 3 -2 6 -13 5 -11 0 -14 -3 -6 -6z"/>
<path d="M4990 5149 c7 -11 15 -17 18 -12 4 4 12 12 17 16 6 5 3 7 -7 3 -10
-3 -18 -1 -18 4 0 6 -5 10 -10 10 -7 0 -7 -7 0 -21z"/>
<path d="M8580 6160 c0 -5 5 -10 10 -10 6 0 10 5 10 10 0 6 -4 10 -10 10 -5 0
-10 -4 -10 -10z"/>
<path d="M4985 4380 c-3 -5 -4 -14 -1 -19 4 -5 2 -11 -3 -13 -5 -1 -26 -74
-46 -162 -20 -87 -43 -174 -51 -192 -8 -18 -14 -35 -14 -36 0 -2 61 -4 136 -6
127 -2 136 -1 129 15 -3 10 -13 50 -21 88 -40 192 -48 225 -52 220 -3 -2 -17
22 -33 55 -29 62 -34 67 -44 50z"/>
<path d="M4597 3863 c-4 -3 -7 -18 -6 -32 l1 -26 11 28 c8 20 16 26 30 21 13
-4 17 -2 13 5 -8 12 -39 15 -49 4z"/>
<path d="M5175 3850 c-16 -4 -46 -8 -66 -9 -19 0 -44 -7 -54 -15 -18 -13 -17
-13 9 -13 16 0 32 -7 37 -14 5 -9 9 -10 9 -2 0 6 15 11 35 11 25 0 44 8 62 26
27 27 21 30 -32 16z"/>
<path d="M4898 3783 c12 -2 32 -2 45 0 12 2 2 4 -23 4 -25 0 -35 -2 -22 -4z"/>
<path d="M5476 3588 c3 -13 15 -39 26 -58 10 -19 17 -28 14 -20 -3 8 -10 34
-17 58 -6 23 -16 42 -21 42 -5 0 -6 -10 -2 -22z"/>
<path d="M5428 3562 c-10 -2 -18 -11 -17 -20 0 -11 2 -12 6 -4 2 6 14 12 26
12 l21 0 -22 -16 c-12 -8 -22 -23 -21 -32 0 -13 3 -11 11 6 8 16 17 21 32 17
15 -5 17 -4 7 3 -9 6 -10 11 -2 13 17 6 -21 26 -41 21z"/>
<path d="M4070 3858 c-25 -5 -87 -11 -137 -15 -59 -3 -93 -9 -93 -17 1 -16 59
-84 60 -68 0 8 17 12 49 12 78 0 109 10 146 48 33 35 44 53 28 51 -5 -1 -28
-6 -53 -11z"/>
<path d="M3478 3803 c-54 -15 -65 -34 -17 -26 21 3 29 1 24 -6 -3 -6 -13 -11
-21 -11 -8 0 -14 -4 -14 -9 0 -11 58 3 73 18 5 5 7 18 5 28 -3 19 -5 20 -50 6z"/>
<path d="M3312 3720 c0 -19 2 -27 5 -17 2 9 2 25 0 35 -3 9 -5 1 -5 -18z"/>
<path d="M3910 3719 c21 -42 75 -119 83 -119 4 0 3 9 -3 21 -7 11 -9 26 -7 33
3 7 -15 30 -40 51 -38 32 -43 34 -33 14z"/>
<path d="M3325 3630 c-3 -5 -1 -10 4 -10 6 0 11 5 11 10 0 6 -2 10 -4 10 -3 0
-8 -4 -11 -10z"/>
<path d="M3300 3580 c0 -16 2 -30 4 -30 2 0 6 14 8 30 3 17 1 30 -4 30 -4 0
-8 -13 -8 -30z"/>
<path d="M3510 3539 c0 -30 -6 -47 -22 -60 -11 -11 -16 -19 -10 -19 6 0 14 5
17 10 4 6 11 8 16 5 5 -4 9 18 9 49 0 31 -2 56 -5 56 -3 0 -5 -19 -5 -41z"/>
<path d="M3996 3528 c-3 -17 -6 -74 -6 -128 l0 -97 48 12 c37 10 47 17 48 34
1 12 -3 24 -7 27 -5 3 -9 14 -9 25 0 11 5 17 10 14 6 -4 8 -10 5 -15 -7 -11
29 -7 37 5 4 6 8 15 8 20 0 6 -4 4 -8 -3 -7 -9 -13 -7 -28 9 -19 22 -19 22 6
15 14 -3 19 -3 13 0 -18 8 -16 34 3 34 8 0 12 5 9 10 -3 6 -1 10 5 10 6 0 8 5
5 10 -4 6 -14 1 -25 -12 -15 -20 -20 -21 -35 -8 -11 10 -19 10 -23 3 -5 -8
-15 -7 -32 4 -14 8 -17 12 -8 9 10 -3 28 -1 40 4 21 8 20 9 -9 9 -32 1 -45 15
-21 23 8 3 6 6 -4 10 -12 5 -17 -1 -22 -24z m84 -188 c0 -5 -9 -10 -20 -10
-11 0 -20 5 -20 10 0 6 9 10 20 10 11 0 20 -4 20 -10z"/>
<path d="M3440 3540 c0 -5 5 -10 10 -10 6 0 10 5 10 10 0 6 -4 10 -10 10 -5 0
-10 -4 -10 -10z"/>
<path d="M4080 3533 c0 -4 5 -15 10 -23 8 -13 10 -13 10 2 0 9 -4 20 -10 23
-5 3 -10 3 -10 -2z"/>
<path d="M3370 3521 c0 -5 7 -12 16 -15 14 -5 15 -4 4 9 -14 17 -20 19 -20 6z"/>
<path d="M3400 3481 c0 -7 -4 -10 -8 -7 -5 3 -8 -5 -7 -16 1 -12 7 -23 14 -24
6 -1 7 0 1 3 -6 3 -6 11 1 25 6 11 8 22 5 26 -3 3 -6 0 -6 -7z"/>
<path d="M3290 3432 c0 -21 7 -40 18 -49 16 -13 15 -14 -5 -10 -21 5 -23 2
-23 -45 0 -32 4 -47 11 -43 6 4 8 13 5 21 -7 19 9 18 28 -2 15 -14 16 -14 18
3 0 10 0 27 -1 37 -1 11 4 23 10 27 7 4 9 14 6 23 -5 12 -14 15 -32 10 -22 -5
-25 -3 -25 20 0 14 5 26 10 26 6 0 10 4 10 8 0 5 -7 9 -15 9 -10 0 -15 -11
-15 -35z m30 -82 c0 -5 -4 -10 -10 -10 -5 0 -10 5 -10 10 0 6 5 10 10 10 6 0
10 -4 10 -10z"/>
<path d="M3490 3430 c0 -5 5 -10 11 -10 5 0 7 5 4 10 -3 6 -8 10 -11 10 -2 0
-4 -4 -4 -10z"/>
<path d="M3396 3404 c-3 -8 -10 -13 -15 -10 -5 3 -7 -3 -4 -14 3 -11 10 -20
15 -20 5 0 6 5 3 10 -9 14 14 42 28 33 6 -3 7 -1 3 5 -10 17 -23 15 -30 -4z"/>
<path d="M3440 3391 c0 -5 7 -12 16 -15 14 -5 15 -4 4 9 -14 17 -20 19 -20 6z"/>
<path d="M3502 3370 c0 -14 2 -19 5 -12 2 6 2 18 0 25 -3 6 -5 1 -5 -13z"/>
<path d="M3350 3351 c0 -5 9 -11 20 -14 14 -4 18 -10 14 -24 -6 -16 -5 -16 9
2 14 18 13 20 -10 32 -30 15 -33 16 -33 4z"/>
<path d="M3440 3340 c0 -5 9 -10 20 -10 11 0 20 5 20 10 0 6 -9 10 -20 10 -11
0 -20 -4 -20 -10z"/>
<path d="M3353 3295 c-3 -9 -3 -18 -1 -21 3 -3 8 4 11 16 6 23 -1 27 -10 5z"/>
<path d="M3390 3290 c-8 -5 -10 -10 -5 -10 6 0 17 5 25 10 8 5 11 10 5 10 -5
0 -17 -5 -25 -10z"/>
<path d="M3410 3271 c0 -6 4 -13 10 -16 6 -3 7 1 4 9 -7 18 -14 21 -14 7z"/>
<path d="M3492 3250 c0 -19 2 -27 5 -17 2 9 2 25 0 35 -3 9 -5 1 -5 -18z"/>
<path d="M3380 3250 c0 -5 7 -10 16 -10 8 0 12 5 9 10 -3 6 -10 10 -16 10 -5
0 -9 -4 -9 -10z"/>
<path d="M5880 3861 c0 -30 15 -42 53 -40 16 1 13 3 -10 10 -19 6 -33 16 -33
25 0 8 5 12 10 9 6 -3 10 -2 10 3 0 6 -7 12 -15 16 -11 4 -15 -2 -15 -23z"/>
<path d="M5881 3708 c-1 -31 3 -59 7 -62 5 -3 7 18 5 47 -6 75 -11 81 -12 15z"/>
<path d="M5890 3484 c0 -100 4 -144 10 -134 5 8 10 38 10 66 0 27 6 56 13 63
10 10 9 11 -5 6 -16 -6 -17 1 -17 65 1 39 -2 74 -5 77 -3 4 -6 -61 -6 -143z"/>
<path d="M2516 3621 c-19 -7 -19 -8 2 -13 15 -4 22 -2 22 8 0 8 -1 14 -2 13
-2 0 -12 -4 -22 -8z"/>
<path d="M2370 3572 c-49 -16 -55 -21 -57 -47 -2 -25 -1 -26 6 -10 5 11 7 23
5 26 -7 12 61 17 68 5 5 -7 8 -4 8 7 0 10 5 15 10 12 6 -3 10 -2 10 4 0 5 8
12 18 14 11 3 12 5 2 5 -8 1 -40 -7 -70 -16z"/>
<path d="M2297 3343 c-10 -96 -9 -123 4 -123 6 0 9 6 7 13 -3 6 -2 49 1 95 8
98 -3 111 -12 15z"/>
<path d="M2440 3308 c0 -14 16 -16 33 -3 17 12 16 13 -7 11 -15 0 -26 -4 -26
-8z"/>
<path d="M2492 3270 c0 -14 2 -19 5 -12 2 6 2 18 0 25 -3 6 -5 1 -5 -13z"/>
<path d="M2450 3260 c0 -5 5 -10 10 -10 6 0 10 5 10 10 0 6 -4 10 -10 10 -5 0
-10 -4 -10 -10z"/>
<path d="M2411 3240 c0 -8 4 -22 9 -30 12 -18 12 -2 0 25 -6 13 -9 15 -9 5z"/>
<path d="M2442 3224 c10 -10 20 -16 22 -13 3 3 -5 11 -17 18 -21 13 -21 12 -5
-5z"/>
<path d="M2267 3057 c-18 -145 -22 -299 -7 -227 4 21 8 26 9 14 2 -40 25 -48
73 -25 37 18 39 20 13 16 -29 -5 -30 -4 -30 30 0 24 4 34 13 30 9 -3 10 0 2
15 -6 11 -15 20 -20 20 -6 0 -10 8 -9 18 0 10 3 12 6 5 2 -7 9 -13 15 -13 6 0
7 8 3 18 -17 41 -18 48 -5 32 9 -11 13 -12 17 -2 2 6 9 10 14 6 5 -3 9 6 9 20
0 14 -8 30 -17 35 -10 6 -13 11 -8 11 13 0 7 70 -6 70 -5 0 -9 -12 -9 -27 0
-22 -2 -25 -10 -13 -8 13 -10 13 -10 -2 0 -9 5 -18 11 -20 7 -2 5 -9 -5 -17
-14 -12 -16 -9 -17 25 -4 89 -6 114 -10 119 -3 2 -13 -59 -22 -138z m40 -169
c-3 -7 -5 -2 -5 12 0 14 2 19 5 13 2 -7 2 -19 0 -25z m6 -25 c-7 -2 -19 -2
-25 0 -7 3 -2 5 12 5 14 0 19 -2 13 -5z m-3 -43 c0 -5 -4 -10 -10 -10 -5 0
-10 5 -10 10 0 6 5 10 10 10 6 0 10 -4 10 -10z"/>
<path d="M2361 3184 c0 -11 3 -14 6 -6 3 7 2 16 -1 19 -3 4 -6 -2 -5 -13z"/>
<path d="M2391 3174 c0 -11 3 -14 6 -6 3 7 2 16 -1 19 -3 4 -6 -2 -5 -13z"/>
<path d="M2440 3180 c0 -5 5 -10 10 -10 6 0 10 5 10 10 0 6 -4 10 -10 10 -5 0
-10 -4 -10 -10z"/>
<path d="M2482 3140 c0 -14 2 -19 5 -12 2 6 2 18 0 25 -3 6 -5 1 -5 -13z"/>
<path d="M2311 3134 c0 -11 3 -14 6 -6 3 7 2 16 -1 19 -3 4 -6 -2 -5 -13z"/>
<path d="M2381 3134 c0 -11 3 -14 6 -6 3 7 2 16 -1 19 -3 4 -6 -2 -5 -13z"/>
<path d="M2370 3100 c0 -5 5 -10 10 -10 6 0 10 5 10 10 0 6 -4 10 -10 10 -5 0
-10 -4 -10 -10z"/>
<path d="M2380 2979 c0 -6 -7 -8 -16 -5 -12 4 -14 1 -9 -14 4 -12 2 -20 -5
-20 -8 0 -7 -7 1 -22 17 -32 16 -32 36 -13 16 17 16 17 -7 11 -24 -7 -24 -7
-5 9 17 13 18 17 5 25 -12 8 -12 10 3 16 18 7 23 24 7 24 -5 0 -10 -5 -10 -11z"/>
<path d="M2397 2879 c7 -9 10 -19 6 -23 -4 -4 1 -4 10 0 10 3 17 7 15 8 -2 1
-12 8 -23 16 -18 14 -19 13 -8 -1z"/>
<path d="M2340 2872 c0 -5 7 -9 15 -9 8 0 15 4 15 9 0 4 -7 8 -15 8 -8 0 -15
-4 -15 -8z"/>
<path d="M6606 3813 c-4 -5 4 -43 10 -43 2 0 13 9 23 19 19 19 19 19 -5 24
-13 2 -25 2 -28 0z"/>
<path d="M6613 3629 c4 -33 10 -144 14 -247 4 -103 9 -173 11 -155 2 22 7 30
17 27 7 -3 16 -1 19 4 3 5 -2 9 -11 8 -9 0 -18 5 -21 13 -3 9 0 11 8 6 9 -6
11 -4 5 5 -13 22 -16 100 -4 100 8 0 8 4 2 13 -5 6 -10 25 -11 41 l-2 28 20
-23 c10 -13 19 -20 20 -16 0 4 -9 17 -19 29 -22 23 -29 60 -33 160 -2 38 -7
68 -12 68 -5 0 -6 -27 -3 -61z"/>
<path d="M6670 3401 c0 -6 4 -13 10 -16 6 -3 7 1 4 9 -7 18 -14 21 -14 7z"/>
<path d="M6655 3352 c2 -36 26 -72 47 -72 7 0 0 11 -17 25 -23 19 -26 24 -12
25 20 0 23 20 3 20 -8 0 -17 8 -19 18 -3 9 -4 2 -2 -16z"/>
<path d="M6700 3359 c0 -5 5 -7 10 -4 6 3 10 8 10 11 0 2 -4 4 -10 4 -5 0 -10
-5 -10 -11z"/>
<path d="M7660 4009 c0 -5 5 -7 10 -4 6 3 10 8 10 11 0 2 -4 4 -10 4 -5 0 -10
-5 -10 -11z"/>
<path d="M7090 3729 c0 -16 4 -29 9 -29 5 0 18 -3 28 -7 13 -4 11 0 -6 14
l-24 20 31 -2 c37 -2 34 9 -8 23 -29 11 -30 10 -30 -19z"/>
<path d="M7095 3600 c2 -14 5 -42 5 -62 0 -21 5 -38 10 -38 11 0 3 71 -12 105
-7 17 -8 16 -3 -5z"/>
<path d="M7113 3435 c0 -27 2 -38 4 -22 2 15 2 37 0 50 -2 12 -4 0 -4 -28z"/>
<path d="M7120 3333 c0 -27 3 -79 7 -114 6 -59 7 -61 14 -29 4 19 4 41 0 50
-5 8 -9 42 -10 75 -3 73 -11 87 -11 18z"/>
<path d="M7893 3121 c0 -52 3 -106 7 -120 11 -35 11 72 0 154 -7 57 -8 55 -7
-34z"/>
<path d="M7146 3155 c-7 -18 21 -69 48 -85 15 -10 13 -5 -7 19 -26 32 -31 43
-28 69 2 17 -6 15 -13 -3z"/>
<path d="M7555 3121 c-3 -5 -1 -12 5 -16 5 -3 10 1 10 9 0 18 -6 21 -15 7z"/>
<path d="M7605 3111 c-6 -10 0 -14 16 -13 3 1 26 -5 52 -13 42 -13 57 -11 57
5 0 4 -19 10 -42 13 -24 2 -50 8 -59 12 -10 3 -20 2 -24 -4z"/>
<path d="M7526 3005 c-9 -26 -7 -32 5 -12 6 10 9 21 6 23 -2 3 -7 -2 -11 -11z"/>
<path d="M7585 3010 c-3 -5 -1 -10 4 -10 6 0 11 5 11 10 0 6 -2 10 -4 10 -3 0
-8 -4 -11 -10z"/>
<path d="M7745 3011 c-3 -5 0 -13 6 -17 7 -4 9 -3 5 4 -3 5 0 13 6 15 9 4 10
6 1 6 -6 1 -14 -3 -18 -8z"/>
<path d="M7464 2980 c0 -13 4 -16 10 -10 7 7 7 13 0 20 -6 6 -10 3 -10 -10z"/>
<path d="M7635 2980 c-3 -5 -1 -10 4 -10 6 0 11 5 11 10 0 6 -2 10 -4 10 -3 0
-8 -4 -11 -10z"/>
<path d="M7785 2970 c-3 -5 -1 -10 4 -10 6 0 11 5 11 10 0 6 -2 10 -4 10 -3 0
-8 -4 -11 -10z"/>
<path d="M7820 2970 c0 -5 5 -10 11 -10 5 0 7 5 4 10 -3 6 -8 10 -11 10 -2 0
-4 -4 -4 -10z"/>
<path d="M7487 2963 c-10 -9 -9 -23 2 -23 5 0 11 7 15 15 5 15 -5 20 -17 8z"/>
<path d="M7590 2960 c0 -5 5 -10 10 -10 6 0 10 5 10 10 0 6 -4 10 -10 10 -5 0
-10 -4 -10 -10z"/>
<path d="M7760 2961 c0 -13 29 -41 43 -41 8 0 8 3 2 8 -6 4 -18 15 -28 25 -9
10 -17 14 -17 8z"/>
<path d="M7901 2954 c0 -11 3 -14 6 -6 3 7 2 16 -1 19 -3 4 -6 -2 -5 -13z"/>
<path d="M7545 2950 c4 -6 11 -8 16 -5 14 9 11 15 -7 15 -8 0 -12 -5 -9 -10z"/>
<path d="M7567 2923 c-10 -10 -8 -23 4 -23 5 0 8 4 5 9 -4 5 0 12 6 14 7 3 8
6 2 6 -6 1 -14 -2 -17 -6z"/>
<path d="M7905 2845 c0 -47 3 -85 8 -85 4 0 7 38 7 85 0 47 -3 85 -7 85 -5 0
-8 -38 -8 -85z"/>
<path d="M7626 2881 c5 -5 23 -12 39 -16 l30 -6 -25 15 c-28 17 -60 22 -44 7z"/>
<path d="M7700 2854 c0 -8 91 -46 96 -41 4 3 -6 12 -22 19 -16 7 -31 15 -34
19 -5 6 -40 9 -40 3z"/>
<path d="M4860 3260 l0 -91 38 3 37 3 3 74 c2 41 -1 77 -5 81 -4 5 -23 11 -40
15 l-33 7 0 -92z"/>
<path d="M2431 2504 c0 -11 3 -14 6 -6 3 7 2 16 -1 19 -3 4 -6 -2 -5 -13z"/>
<path d="M3106 2083 c-6 -14 -5 -15 5 -6 7 7 10 15 7 18 -3 3 -9 -2 -12 -12z"/>
<path d="M3196 2077 c3 -10 9 -15 12 -12 3 3 0 11 -7 18 -10 9 -11 8 -5 -6z"/>
<path d="M3960 1816 c0 -15 18 -31 26 -23 7 7 -7 37 -17 37 -5 0 -9 -6 -9 -14z"/>
<path d="M4886 1838 c-22 -31 -20 -65 4 -78 27 -14 58 3 66 37 14 53 -40 84
-70 41z"/>
<path d="M6347 1843 c-4 -3 -7 -21 -7 -40 0 -45 36 -64 75 -39 30 20 32 39 5
66 -19 19 -60 27 -73 13z"/>
<path d="M6330 1460 c0 -5 5 -10 10 -10 6 0 10 5 10 10 0 6 -4 10 -10 10 -5 0
-10 -4 -10 -10z"/>
<path d="M10170 9220 c0 -5 5 -10 11 -10 5 0 7 5 4 10 -3 6 -8 10 -11 10 -2 0
-4 -4 -4 -10z"/>
<path d="M9880 9181 c0 -5 5 -13 10 -16 6 -3 10 -2 10 4 0 5 -4 13 -10 16 -5
3 -10 2 -10 -4z"/>
<path d="M9785 9170 c3 -5 8 -10 11 -10 2 0 4 5 4 10 0 6 -5 10 -11 10 -5 0
-7 -4 -4 -10z"/>
<path d="M9585 9140 c3 -5 8 -10 11 -10 2 0 4 5 4 10 0 6 -5 10 -11 10 -5 0
-7 -4 -4 -10z"/>
<path d="M8747 9133 c-4 -3 -7 -11 -7 -17 0 -6 5 -5 12 2 6 6 9 14 7 17 -3 3
-9 2 -12 -2z"/>
<path d="M8780 9133 c0 -5 11 -16 24 -25 23 -17 24 -17 19 2 -3 11 -9 17 -14
14 -5 -3 -9 0 -9 5 0 6 -4 11 -10 11 -5 0 -10 -3 -10 -7z"/>
<path d="M8782 9081 c13 -15 26 -26 30 -24 8 4 -36 53 -47 53 -4 0 4 -13 17
-29z"/>
<path d="M8905 9080 c-16 -7 -17 -9 -3 -9 9 -1 20 4 23 9 7 11 7 11 -20 0z"/>
<path d="M9065 8990 c3 -5 8 -10 11 -10 2 0 4 5 4 10 0 6 -5 10 -11 10 -5 0
-7 -4 -4 -10z"/>
<path d="M9048 8959 c18 -17 36 -29 39 -26 7 8 -22 37 -36 37 -6 0 -11 5 -11
10 0 6 -6 10 -12 10 -7 0 2 -14 20 -31z"/>
<path d="M9095 8960 c3 -5 8 -10 11 -10 2 0 4 5 4 10 0 6 -5 10 -11 10 -5 0
-7 -4 -4 -10z"/>
<path d="M9150 8961 c0 -5 6 -11 13 -14 6 -2 9 -8 5 -12 -4 -4 -14 -3 -21 3
-8 7 -17 9 -20 5 -11 -11 -8 -23 6 -23 7 0 28 -16 45 -36 18 -20 36 -34 39
-30 4 3 -7 20 -23 37 -19 21 -25 33 -16 36 17 7 15 16 -8 31 -11 7 -20 8 -20
3z"/>
<path d="M9312 8936 c7 -8 15 -12 17 -11 5 6 -10 25 -20 25 -5 0 -4 -6 3 -14z"/>
<path d="M9290 8922 c0 -12 19 -26 26 -19 2 2 -2 10 -11 17 -9 8 -15 8 -15 2z"/>
<path d="M9336 8903 c-6 -14 -5 -15 5 -6 7 7 10 15 7 18 -3 3 -9 -2 -12 -12z"/>
<path d="M9397 8909 c7 -7 15 -10 18 -7 3 3 -2 9 -12 12 -14 6 -15 5 -6 -5z"/>
<path d="M9447 8906 c-3 -8 2 -20 11 -27 14 -11 15 -11 5 0 -6 7 -9 20 -6 27
3 8 3 14 0 14 -3 0 -7 -6 -10 -14z"/>
<path d="M9375 8880 c-3 -5 -1 -10 4 -10 6 0 11 5 11 10 0 6 -2 10 -4 10 -3 0
-8 -4 -11 -10z"/>
<path d="M9520 8869 c0 -5 5 -7 10 -4 6 3 10 8 10 11 0 2 -4 4 -10 4 -5 0 -10
-5 -10 -11z"/>
<path d="M9480 8862 c0 -4 10 -14 22 -22 11 -8 28 -23 37 -32 8 -10 20 -18 25
-18 5 0 1 9 -9 20 -10 11 -15 23 -10 28 4 4 10 1 12 -5 5 -15 23 -18 23 -4 0
15 -32 22 -46 10 -10 -8 -16 -5 -26 10 -13 21 -28 28 -28 13z"/>
<path d="M9700 8830 c-9 -6 -10 -10 -3 -10 6 0 15 5 18 10 8 12 4 12 -15 0z"/>
<path d="M9621 8814 c0 -11 3 -14 6 -6 3 7 2 16 -1 19 -3 4 -6 -2 -5 -13z"/>
<path d="M9670 8810 c0 -5 5 -10 11 -10 5 0 7 5 4 10 -3 6 -8 10 -11 10 -2 0
-4 -4 -4 -10z"/>
<path d="M9595 8801 c-3 -5 -1 -12 5 -16 5 -3 10 1 10 9 0 18 -6 21 -15 7z"/>
<path d="M9827 8799 c7 -7 15 -10 18 -7 3 3 -2 9 -12 12 -14 6 -15 5 -6 -5z"/>
<path d="M9759 8766 c19 -20 26 -22 46 -12 17 8 21 14 13 21 -7 7 -12 6 -15
-2 -6 -18 -32 -16 -39 2 -4 8 -11 15 -17 15 -6 0 0 -11 12 -24z"/>
<path d="M9720 8754 c0 -11 -6 -14 -22 -9 -19 5 -20 4 -6 -5 9 -5 23 -7 32 -4
17 7 22 34 6 34 -5 0 -10 -7 -10 -16z"/>
<path d="M9910 8760 c8 -5 20 -10 25 -10 6 0 3 5 -5 10 -8 5 -19 10 -25 10 -5
0 -3 -5 5 -10z"/>
<path d="M9835 8740 c3 -5 8 -10 11 -10 2 0 4 5 4 10 0 6 -5 10 -11 10 -5 0
-7 -4 -4 -10z"/>
<path d="M9755 8730 c3 -5 8 -10 11 -10 2 0 4 5 4 10 0 6 -5 10 -11 10 -5 0
-7 -4 -4 -10z"/>
<path d="M9820 8716 c0 -4 7 -14 15 -22 8 -9 15 -11 15 -6 0 5 -7 15 -15 22
-8 7 -15 9 -15 6z"/>
<path d="M9780 8699 c0 -6 -9 -8 -22 -4 -13 3 -18 3 -13 -2 6 -5 13 -12 16
-16 3 -4 14 2 24 13 10 11 13 20 7 20 -7 0 -12 -5 -12 -11z"/>
<path d="M9800 8680 c0 -5 5 -10 11 -10 5 0 7 5 4 10 -3 6 -8 10 -11 10 -2 0
-4 -4 -4 -10z"/>
<path d="M9860 8671 c0 -5 7 -12 16 -15 14 -5 15 -4 4 9 -14 17 -20 19 -20 6z"/>
<path d="M10015 8670 c3 -5 8 -10 11 -10 2 0 4 5 4 10 0 6 -5 10 -11 10 -5 0
-7 -4 -4 -10z"/>
<path d="M9780 8654 c0 -13 -3 -14 -14 -5 -11 9 -16 9 -22 0 -4 -8 -2 -15 5
-17 8 -3 29 -21 47 -40 19 -20 34 -31 34 -25 0 5 -12 22 -26 37 -21 20 -24 29
-15 40 8 10 9 16 1 21 -5 3 -10 -1 -10 -11z"/>
<path d="M9920 8660 c0 -5 5 -10 10 -10 6 0 10 5 10 10 0 6 -4 10 -10 10 -5 0
-10 -4 -10 -10z"/>
<path d="M9811 8646 c-9 -10 -8 -16 4 -26 9 -7 18 -10 22 -6 3 3 1 6 -6 6 -8
0 -11 8 -8 20 6 24 4 25 -12 6z"/>
<path d="M9986 8651 c-3 -5 1 -12 10 -15 22 -8 25 -4 9 11 -8 7 -16 9 -19 4z"/>
<path d="M9900 8630 c0 -5 5 -10 10 -10 6 0 10 5 10 10 0 6 -4 10 -10 10 -5 0
-10 -4 -10 -10z"/>
<path d="M9960 8619 c0 -5 5 -7 10 -4 6 3 10 8 10 11 0 2 -4 4 -10 4 -5 0 -10
-5 -10 -11z"/>
<path d="M10060 8620 c0 -5 5 -10 10 -10 6 0 10 5 10 10 0 6 -4 10 -10 10 -5
0 -10 -4 -10 -10z"/>
<path d="M9880 8610 c0 -5 5 -10 11 -10 5 0 7 5 4 10 -3 6 -8 10 -11 10 -2 0
-4 -4 -4 -10z"/>
<path d="M10015 8610 c3 -5 8 -10 11 -10 2 0 4 5 4 10 0 6 -5 10 -11 10 -5 0
-7 -4 -4 -10z"/>
<path d="M9750 8601 c0 -5 7 -16 15 -25 11 -10 12 -17 4 -22 -6 -3 -15 0 -20
7 -4 7 -11 11 -14 7 -4 -3 3 -16 14 -27 12 -12 21 -16 21 -10 0 7 7 17 16 23
13 10 12 14 -10 34 -15 12 -26 18 -26 13z"/>
<path d="M9846 8601 c-3 -5 1 -11 9 -15 8 -3 15 -1 15 4 0 13 -18 22 -24 11z"/>
<path d="M9916 8595 c-19 -14 -19 -16 10 -40 16 -14 36 -25 44 -24 12 0 12 2
1 6 -20 8 -54 44 -47 50 3 3 12 0 21 -7 21 -17 31 -5 12 15 -19 18 -17 18 -41
0z"/>
<path d="M9990 8600 c0 -5 5 -10 11 -10 5 0 7 5 4 10 -3 6 -8 10 -11 10 -2 0
-4 -4 -4 -10z"/>
<path d="M9700 8590 c0 -5 7 -10 16 -10 8 0 12 5 9 10 -3 6 -10 10 -16 10 -5
0 -9 -4 -9 -10z"/>
<path d="M10135 8590 c-3 -5 -1 -10 4 -10 6 0 11 5 11 10 0 6 -2 10 -4 10 -3
0 -8 -4 -11 -10z"/>
<path d="M9840 8566 c0 -9 5 -16 10 -16 6 0 10 4 10 9 0 6 -4 13 -10 16 -5 3
-10 -1 -10 -9z"/>
<path d="M10015 8570 c3 -5 8 -10 11 -10 2 0 4 5 4 10 0 6 -5 10 -11 10 -5 0
-7 -4 -4 -10z"/>
<path d="M10060 8569 c0 -5 5 -7 10 -4 6 3 10 8 10 11 0 2 -4 4 -10 4 -5 0
-10 -5 -10 -11z"/>
<path d="M9994 8545 c8 -8 18 -15 22 -15 3 0 1 7 -6 15 -7 8 -17 15 -22 15 -5
0 -3 -7 6 -15z"/>
<path d="M10180 8550 c-9 -6 -10 -10 -3 -10 6 0 15 5 18 10 8 12 4 12 -15 0z"/>
<path d="M10040 8540 c0 -5 5 -10 10 -10 6 0 10 5 10 10 0 6 -4 10 -10 10 -5
0 -10 -4 -10 -10z"/>
<path d="M10080 8523 c5 -2 8 -9 4 -14 -3 -5 0 -9 6 -9 15 0 7 23 -8 26 -7 1
-8 0 -2 -3z"/>
<path d="M10040 8500 c0 -5 5 -10 10 -10 6 0 10 5 10 10 0 6 -4 10 -10 10 -5
0 -10 -4 -10 -10z"/>
<path d="M10195 8500 c3 -5 8 -10 11 -10 2 0 4 5 4 10 0 6 -5 10 -11 10 -5 0
-7 -4 -4 -10z"/>
<path d="M10104 8486 c-4 -11 -13 -15 -25 -11 -22 7 -24 -1 -5 -20 12 -12 16
-11 31 11 9 14 14 28 11 31 -3 3 -8 -2 -12 -11z"/>
<path d="M10225 8480 c3 -5 8 -10 11 -10 2 0 4 5 4 10 0 6 -5 10 -11 10 -5 0
-7 -4 -4 -10z"/>
<path d="M10187 8449 c7 -7 15 -10 18 -7 3 3 -2 9 -12 12 -14 6 -15 5 -6 -5z"/>
<path d="M10210 8410 c0 -6 7 -10 15 -10 8 0 15 2 15 4 0 2 -7 6 -15 10 -8 3
-15 1 -15 -4z"/>
<path d="M10176 8365 c-3 -9 0 -15 9 -15 16 0 20 16 6 24 -5 3 -11 -1 -15 -9z"/>
<path d="M10210 8350 c0 -5 7 -10 16 -10 8 0 12 5 9 10 -3 6 -10 10 -16 10 -5
0 -9 -4 -9 -10z"/>
<path d="M10199 8326 c6 -7 9 -21 5 -30 -3 -9 -1 -16 6 -16 6 0 8 5 5 10 -3 6
-2 10 4 10 5 0 8 -20 6 -45 -1 -25 2 -45 7 -45 5 0 8 25 7 56 -2 41 -7 58 -20
65 -25 13 -33 11 -20 -5z"/>
<path d="M10075 8320 c-8 -13 15 -24 27 -12 6 6 4 11 -6 15 -8 3 -18 2 -21 -3z"/>
</g>
</svg>
